<?xml version="1.0" encoding="utf-8"?>
<!-- Generator: Adobe Illustrator 22.1.0, SVG Export Plug-In . SVG Version: 6.00 Build 0)  -->
<svg version="1.1" xmlns="http://www.w3.org/2000/svg" xmlns:xlink="http://www.w3.org/1999/xlink" x="0px" y="0px"
	 viewBox="0 0 1920 1080" style="enable-background:new 0 0 1920 1080;" xml:space="preserve">
<style type="text/css">
	.st0{fill:#FFFFFF;}
	.st1{fill:#0B4A7C;}
	.st2{fill:#106CA1;}
	.st3{fill:#18B1E1;}
	.st4{fill:#2FC5F4;}
	.st5{clip-path:url(#SVGID_2_);}
	.st6{fill:none;stroke:#0B4A7C;stroke-width:2.1894;stroke-miterlimit:10;}
	.st7{font-family:'PT Sans', sans-serif;}
	.st8{font-size:38px;}
	.st9{clip-path:url(#SVGID_4_);}
	.st10{font-family:'PT Sans', sans-serif;}
	.st11{font-size:24px;}
	.st12{fill:none;stroke:#0B4A7C;stroke-width:5.8417;stroke-miterlimit:10;}
	.st13{clip-path:url(#SVGID_6_);}
	.st14{clip-path:url(#SVGID_8_);}
	.st15{fill:none;stroke:#0B4A7C;stroke-width:2.9706;stroke-miterlimit:10;}
	.st16{fill:none;stroke:#0B4A7C;stroke-width:2.971;stroke-miterlimit:10;}
	.st17{display:none;}
</style>
<g id="BG">
	<rect class="st0" width="1920" height="1080"/>
</g>
<g id="Divisions">
</g>
<g id="Type_x2F_Icons">
	<g>
		<path class="st1" d="M1764.8,737.4h-6v3h3v3.8h3V737.4L1764.8,737.4z M1758.8,737.4L1758.8,737.4l-0.1,3h0.1V737.4L1758.8,737.4z
			 M1752.7,737.4L1752.7,737.4l-0.1,3h0.1V737.4L1752.7,737.4z M1752.6,737.4h-6v3h6V737.4L1752.6,737.4z M1746.6,737.4
			L1746.6,737.4l-0.1,3h0.1V737.4L1746.6,737.4z M1740.5,737.4L1740.5,737.4l-0.1,3h0.1V737.4L1740.5,737.4z M1740.4,737.4h-6v3h6
			V737.4L1740.4,737.4z M1734.3,737.4L1734.3,737.4l-0.1,3h0.1V737.4L1734.3,737.4z M1728.3,737.4L1728.3,737.4l-0.1,3h0.1V737.4
			L1728.3,737.4z M1728.2,737.4h-6v3h6V737.4L1728.2,737.4z M1722.1,737.4L1722.1,737.4l-0.1,3h0.1V737.4L1722.1,737.4z
			 M1716.1,737.4L1716.1,737.4l-0.1,3h0.1V737.4L1716.1,737.4z M1716,737.4h-6v3h6V737.4L1716,737.4z M1709.9,737.4L1709.9,737.4
			l-0.1,3h0.1V737.4L1709.9,737.4z M1703.9,737.4L1703.9,737.4l-0.1,3h0.1V737.4L1703.9,737.4z M1703.7,737.4h-6v3h6V737.4
			L1703.7,737.4z M1697.7,737.4L1697.7,737.4l-0.1,3h0.1V737.4L1697.7,737.4z M1691.6,737.4L1691.6,737.4l-0.1,3h0.1V737.4
			L1691.6,737.4z M1691.5,737.4h-6v3h6V737.4L1691.5,737.4z M1685.5,737.4L1685.5,737.4l-0.1,3h0.1V737.4L1685.5,737.4z
			 M1679.4,737.4L1679.4,737.4l-0.1,3h0.1V737.4L1679.4,737.4z M1679.3,737.4h-6v3h6V737.4L1679.3,737.4z M1673.2,737.4
			L1673.2,737.4l-0.1,3h0.1V737.4L1673.2,737.4z M1667.2,737.4L1667.2,737.4l-0.1,3h0.1V737.4L1667.2,737.4z M1667.1,737.4h-6v3h6
			V737.4L1667.1,737.4z M1661,737.4L1661,737.4l-0.1,3h0.1V737.4L1661,737.4z M1655,737.4L1655,737.4l-0.1,3h0.1V737.4L1655,737.4z
			 M1654.9,737.4h-6v3h6V737.4L1654.9,737.4z M1648.8,737.4L1648.8,737.4l-0.1,3h0.1V737.4L1648.8,737.4z M1642.8,737.4
			L1642.8,737.4l-0.1,3h0.1V737.4L1642.8,737.4z M1642.6,737.4h-6v3h6V737.4L1642.6,737.4z M1636.6,737.4L1636.6,737.4l-0.1,3h0.1
			V737.4L1636.6,737.4z M1630.5,737.4L1630.5,737.4l-0.1,3h0.1V737.4L1630.5,737.4z M1630.4,737.4h-6v3h6V737.4L1630.4,737.4z
			 M1624.4,737.4L1624.4,737.4l-0.1,3h0.1V737.4L1624.4,737.4z M1618.3,737.4L1618.3,737.4l-0.1,3h0.1V737.4L1618.3,737.4z
			 M1618.2,737.4h-6v3h6V737.4L1618.2,737.4z M1612.2,737.4L1612.2,737.4l-0.1,3h0.1V737.4L1612.2,737.4z M1606.1,737.4
			L1606.1,737.4l-0.1,3h0.1V737.4L1606.1,737.4z M1606,737.4h-6v3h6V737.4L1606,737.4z M1599.9,737.4L1599.9,737.4l-0.1,3h0.1V737.4
			L1599.9,737.4z M1593.9,737.4L1593.9,737.4l-0.1,3h0.1V737.4L1593.9,737.4z M1593.8,737.4h-6v3h6V737.4L1593.8,737.4z
			 M1587.7,737.4L1587.7,737.4l-0.1,3h0.1V737.4L1587.7,737.4z M1581.7,737.4L1581.7,737.4l-0.1,3h0.1V737.4L1581.7,737.4z
			 M1581.5,737.4h-6v3h6V737.4L1581.5,737.4z M1575.5,737.4L1575.5,737.4l-0.1,3h0.1V737.4L1575.5,737.4z M1569.4,737.4
			L1569.4,737.4l-0.1,3h0.1V737.4L1569.4,737.4z M1569.3,737.4h-6v3h6V737.4L1569.3,737.4z M1563.3,737.4L1563.3,737.4l-0.1,3h0.1
			V737.4L1563.3,737.4z M1557.2,737.4L1557.2,737.4l-0.1,3h0.1V737.4L1557.2,737.4z M1557.1,737.4h-6v3h6V737.4L1557.1,737.4z
			 M1551.1,737.4L1551.1,737.4l-0.1,3h0.1V737.4L1551.1,737.4z M1545,737.4L1545,737.4l-0.1,3h0.1V737.4L1545,737.4z M1544.9,737.4
			h-6v3h6V737.4L1544.9,737.4z M1538.8,737.4L1538.8,737.4l-0.1,3h0.1V737.4L1538.8,737.4z M1532.8,737.4L1532.8,737.4l-0.1,3h0.1
			V737.4L1532.8,737.4z M1532.7,737.4h-6v3h6V737.4L1532.7,737.4z M1526.6,737.4L1526.6,737.4l-0.1,3h0.1V737.4L1526.6,737.4z
			 M1520.6,737.4L1520.6,737.4l-0.1,3h0.1V737.4L1520.6,737.4z M1520.4,737.4h-6v3h6V737.4L1520.4,737.4z M1514.4,737.4
			L1514.4,737.4l-0.1,3h0.1V737.4L1514.4,737.4z M1508.3,737.4L1508.3,737.4l-0.1,3h0.1V737.4L1508.3,737.4z M1508.2,737.4h-6v3h6
			V737.4L1508.2,737.4z M1502.2,737.4L1502.2,737.4l-0.1,3h0.1V737.4L1502.2,737.4z M1496.1,737.4L1496.1,737.4l-0.1,3h0.1V737.4
			L1496.1,737.4z M1496,737.4h-6v3h6V737.4L1496,737.4z M1490,737.4L1490,737.4l-0.1,3h0.1V737.4L1490,737.4z M1483.9,737.4
			L1483.9,737.4l-0.1,3h0.1V737.4L1483.9,737.4z M1483.8,737.4h-6v3h6V737.4L1483.8,737.4z M1477.7,737.4L1477.7,737.4l-0.1,3h0.1
			V737.4L1477.7,737.4z M1471.7,737.4L1471.7,737.4l-0.1,3h0.1V737.4L1471.7,737.4z M1471.6,737.4h-6v3h6V737.4L1471.6,737.4z
			 M1465.5,737.4L1465.5,737.4l-0.1,3h0.1V737.4L1465.5,737.4z M1459.5,737.4L1459.5,737.4l-0.1,3h0.1V737.4L1459.5,737.4z
			 M1459.3,737.4h-6v3h6V737.4L1459.3,737.4z M1453.3,737.4L1453.3,737.4l-0.1,3h0.1V737.4L1453.3,737.4z M1447.2,737.4
			L1447.2,737.4l-0.1,3h0.1V737.4L1447.2,737.4z M1447.1,737.4h-6v3h6V737.4L1447.1,737.4z M1441.1,737.4L1441.1,737.4l-0.1,3h0.1
			V737.4L1441.1,737.4z M1435,737.4L1435,737.4l-0.1,3h0.1V737.4L1435,737.4z M1434.9,737.4h-6v3h6V737.4L1434.9,737.4z
			 M1428.8,737.4L1428.8,737.4l-0.1,3h0.1V737.4L1428.8,737.4z M1422.8,737.4L1422.8,737.4l-0.1,3h0.1V737.4L1422.8,737.4z
			 M1422.7,737.4h-6v3h6V737.4L1422.7,737.4z M1416.6,737.4L1416.6,737.4l-0.1,3h0.1V737.4L1416.6,737.4z M1410.6,737.4
			L1410.6,737.4l-0.1,3h0.1V737.4L1410.6,737.4z M1410.5,737.4h-6v3h6V737.4L1410.5,737.4z M1404.4,737.4L1404.4,737.4l-0.1,3h0.1
			V737.4L1404.4,737.4z M1398.4,737.4L1398.4,737.4l-0.1,3h0.1V737.4L1398.4,737.4z M1398.2,737.4h-6v3h6V737.4L1398.2,737.4z
			 M1392.2,737.4L1392.2,737.4l-0.1,3h0.1V737.4L1392.2,737.4z M1386.1,737.4L1386.1,737.4l-0.1,3h0.1V737.4L1386.1,737.4z
			 M1386,737.4h-6v3h6V737.4L1386,737.4z M1380,737.4L1380,737.4l-0.1,3h0.1V737.4L1380,737.4z M1373.9,737.4L1373.9,737.4l-0.1,3
			h0.1V737.4L1373.9,737.4z M1373.8,737.4h-6v3h6V737.4L1373.8,737.4z M1367.7,737.4L1367.7,737.4l-0.1,3h0.1V737.4L1367.7,737.4z
			 M1361.7,737.4L1361.7,737.4l-0.1,3h0.1V737.4L1361.7,737.4z M1361.6,737.4h-6v3h6V737.4L1361.6,737.4z M1355.5,737.4
			L1355.5,737.4l-0.1,3h0.1V737.4L1355.5,737.4z M1349.5,737.4L1349.5,737.4l-0.1,3h0.1V737.4L1349.5,737.4z M1349.4,737.4h-6v3h6
			V737.4L1349.4,737.4z M1343.3,737.4L1343.3,737.4l-0.1,3h0.1V737.4L1343.3,737.4z M1337.3,737.4L1337.3,737.4l-0.1,3h0.1V737.4
			L1337.3,737.4z M1337.1,737.4h-6v3h6V737.4L1337.1,737.4z M1331.1,737.4L1331.1,737.4l-0.1,3h0.1V737.4L1331.1,737.4z M1325,737.4
			L1325,737.4l-0.1,3h0.1V737.4L1325,737.4z M1324.9,737.4h-6v3h6V737.4L1324.9,737.4z M1318.9,737.4L1318.9,737.4l-0.1,3h0.1V737.4
			L1318.9,737.4z M1312.8,737.4L1312.8,737.4l-0.1,3h0.1V737.4L1312.8,737.4z M1312.7,737.4h-6v3h6V737.4L1312.7,737.4z
			 M1306.7,737.4L1306.7,737.4l-0.1,3h0.1V737.4L1306.7,737.4z M1300.6,737.4L1300.6,737.4l-0.1,3h0.1V737.4L1300.6,737.4z
			 M1300.5,737.4h-6v3h6V737.4L1300.5,737.4z M1294.4,737.4L1294.4,737.4l-0.1,3h0.1V737.4L1294.4,737.4z M1288.4,737.4
			L1288.4,737.4l-0.1,3h0.1V737.4L1288.4,737.4z M1288.3,737.4h-6v3h6V737.4L1288.3,737.4z M1282.2,737.4L1282.2,737.4l-0.1,3h0.1
			V737.4L1282.2,737.4z M1276.2,737.4L1276.2,737.4l-0.1,3h0.1V737.4L1276.2,737.4z M1276,737.4h-6v3h6V737.4L1276,737.4z
			 M1270,737.4L1270,737.4l-0.1,3h0.1V737.4L1270,737.4z M1263.9,737.4L1263.9,737.4l-0.1,3h0.1V737.4L1263.9,737.4z M1263.8,737.4
			h-6v3h6V737.4L1263.8,737.4z M1257.8,737.4L1257.8,737.4l-0.1,3h0.1V737.4L1257.8,737.4z M1251.7,737.4L1251.7,737.4l-0.1,3h0.1
			V737.4L1251.7,737.4z M1251.6,737.4h-6v3h6V737.4L1251.6,737.4z M1245.6,737.4L1245.6,737.4l-0.1,3h0.1V737.4L1245.6,737.4z
			 M1239.5,737.4L1239.5,737.4l-0.1,3h0.1V737.4L1239.5,737.4z M1239.4,737.4h-6v3h6V737.4L1239.4,737.4z M1233.3,737.4
			L1233.3,737.4l-0.1,3h0.1V737.4L1233.3,737.4z M1227.3,737.4L1227.3,737.4l-0.1,3h0.1V737.4L1227.3,737.4z M1227.2,737.4h-6v3h6
			V737.4L1227.2,737.4z M1221.1,737.4L1221.1,737.4l-0.1,3h0.1V737.4L1221.1,737.4z M1215.1,737.4L1215.1,737.4l-0.1,3h0.1V737.4
			L1215.1,737.4z M1214.9,737.4h-6v3h6V737.4L1214.9,737.4z M1208.9,737.4L1208.9,737.4l-0.1,3h0.1V737.4L1208.9,737.4z
			 M1202.8,737.4L1202.8,737.4l-0.1,3h0.1V737.4L1202.8,737.4z M1202.7,737.4h-6v3h6V737.4L1202.7,737.4z M1196.7,737.4
			L1196.7,737.4l-0.1,3h0.1V737.4L1196.7,737.4z M1190.6,737.4L1190.6,737.4l-0.1,3h0.1V737.4L1190.6,737.4z M1190.5,737.4h-6v3h6
			V737.4L1190.5,737.4z M1184.5,737.4L1184.5,737.4l-0.1,3h0.1V737.4L1184.5,737.4z M1178.4,737.4L1178.4,737.4l-0.1,3h0.1V737.4
			L1178.4,737.4z M1178.3,737.4h-6v3h6V737.4L1178.3,737.4z M1172.2,737.4L1172.2,737.4l-0.1,3h0.1V737.4L1172.2,737.4z
			 M1166.2,737.4L1166.2,737.4l-0.1,3h0.1V737.4L1166.2,737.4z M1166.1,737.4h-6v3h6V737.4L1166.1,737.4z M1160,737.4L1160,737.4
			l-0.1,3h0.1V737.4L1160,737.4z M1154,737.4L1154,737.4l-0.1,3h0.1V737.4L1154,737.4z M1153.8,737.4h-6v3h6V737.4L1153.8,737.4z
			 M1147.8,737.4L1147.8,737.4l-0.1,3h0.1V737.4L1147.8,737.4z M1141.7,737.4L1141.7,737.4l-0.1,3h0.1V737.4L1141.7,737.4z
			 M1141.6,737.4h-6v3h6V737.4L1141.6,737.4z M1135.6,737.4L1135.6,737.4l-0.1,3h0.1V737.4L1135.6,737.4z M1129.5,737.4
			L1129.5,737.4l-0.1,3h0.1V737.4L1129.5,737.4z M1129.4,737.4h-6v3h6V737.4L1129.4,737.4z M1123.3,737.4L1123.3,737.4l-0.1,3h0.1
			V737.4L1123.3,737.4z M1117.3,737.4L1117.3,737.4l-0.1,3h0.1V737.4L1117.3,737.4z M1117.2,737.4h-6v3h6V737.4L1117.2,737.4z
			 M1111.1,737.4L1111.1,737.4l-0.1,3h0.1V737.4L1111.1,737.4z M1105.1,737.4L1105.1,737.4l-0.1,3h0.1V737.4L1105.1,737.4z
			 M1105,737.4h-6v3h6V737.4L1105,737.4z M1098.9,737.4L1098.9,737.4l-0.1,3h0.1V737.4L1098.9,737.4z M1092.9,737.4L1092.9,737.4
			l-0.1,3h0.1V737.4L1092.9,737.4z M1092.7,737.4h-6v3h6V737.4L1092.7,737.4z M1086.7,737.4L1086.7,737.4l-0.1,3h0.1V737.4
			L1086.7,737.4z M1081.8,737.4h-3v3l0,0c0,0.8,0,1.4,0,1.4h3V737.4L1081.8,737.4z M1081.8,741.8h-3v0.1L1081.8,741.8L1081.8,741.8
			L1081.8,741.8z M1081.8,747.9h-3v0.1L1081.8,747.9L1081.8,747.9L1081.8,747.9z M1081.8,748h-3v6h3V748L1081.8,748z M1081.8,754h-3
			v0.1L1081.8,754L1081.8,754L1081.8,754z M1081.8,760.1h-3v0.1L1081.8,760.1L1081.8,760.1L1081.8,760.1z M1081.8,760.2h-3v6h3
			V760.2L1081.8,760.2z M1081.8,766.3h-3v0.1L1081.8,766.3L1081.8,766.3L1081.8,766.3z M1081.8,772.3h-3v0.1L1081.8,772.3
			L1081.8,772.3L1081.8,772.3z M1081.8,772.4h-3v6h3V772.4L1081.8,772.4z M1081.8,778.5h-3v0.1L1081.8,778.5L1081.8,778.5
			L1081.8,778.5z M1081.8,784.5h-3v0.1L1081.8,784.5L1081.8,784.5L1081.8,784.5z M1081.8,784.7h-3v6h3V784.7L1081.8,784.7z
			 M1081.8,790.7h-3v0.1L1081.8,790.7L1081.8,790.7L1081.8,790.7z M1081.8,796.8h-3v0.1L1081.8,796.8L1081.8,796.8L1081.8,796.8z
			 M1081.8,796.9h-3v6h3V796.9L1081.8,796.9z M1081.8,802.9h-3v0.1L1081.8,802.9L1081.8,802.9L1081.8,802.9z M1081.8,809h-3v0.1
			L1081.8,809L1081.8,809L1081.8,809z M1081.8,809.1h-3v6h3V809.1L1081.8,809.1z M1081.8,815.2h-3v0.1L1081.8,815.2L1081.8,815.2
			L1081.8,815.2z M1081.8,821.2h-3v0.1L1081.8,821.2L1081.8,821.2L1081.8,821.2z M1081.8,821.3h-3v6h3V821.3L1081.8,821.3z
			 M1081.8,827.4h-3v0.1L1081.8,827.4L1081.8,827.4L1081.8,827.4z M1081.8,833.4h-3v0.1L1081.8,833.4L1081.8,833.4L1081.8,833.4z
			 M1081.8,833.5h-3v6h3V833.5L1081.8,833.5z M1081.8,839.6h-3v0.1L1081.8,839.6L1081.8,839.6L1081.8,839.6z M1081.8,845.6h-3v0.1
			L1081.8,845.6L1081.8,845.6L1081.8,845.6z M1081.8,845.8h-3v6h3V845.8L1081.8,845.8z M1081.8,851.8h-3v0.1L1081.8,851.8
			L1081.8,851.8L1081.8,851.8z M1081.8,857.9h-3v0.1L1081.8,857.9L1081.8,857.9L1081.8,857.9z M1081.8,858h-3v6h3V858L1081.8,858z
			 M1081.8,864h-3v0.1L1081.8,864L1081.8,864L1081.8,864z M1081.8,870.1h-3v0.1L1081.8,870.1L1081.8,870.1L1081.8,870.1z
			 M1081.8,870.2h-3v6h3V870.2L1081.8,870.2z M1081.8,876.2h-3v0.1L1081.8,876.2L1081.8,876.2L1081.8,876.2z M1081.8,882.3h-3v0.1
			L1081.8,882.3L1081.8,882.3L1081.8,882.3z M1081.8,882.4h-3v6h3V882.4L1081.8,882.4z M1081.8,888.5h-3v0.1L1081.8,888.5
			L1081.8,888.5L1081.8,888.5z M1081.8,894.5h-3v0.1L1081.8,894.5L1081.8,894.5L1081.8,894.5z M1081.8,894.6h-3v6h3V894.6
			L1081.8,894.6z M1081.8,900.7h-3v0.1L1081.8,900.7L1081.8,900.7L1081.8,900.7z M1081.8,906.7h-3v0.1L1081.8,906.7L1081.8,906.7
			L1081.8,906.7z M1081.8,906.9h-3v6h3V906.9L1081.8,906.9z M1081.8,912.9h-3v0.1L1081.8,912.9L1081.8,912.9L1081.8,912.9z
			 M1081.8,919h-3v0.1L1081.8,919L1081.8,919L1081.8,919z M1081.8,919.1h-3v6h3V919.1L1081.8,919.1z M1081.8,925.1h-3v0.1
			L1081.8,925.1L1081.8,925.1L1081.8,925.1z M1081.8,931.2h-3v0.1L1081.8,931.2L1081.8,931.2L1081.8,931.2z M1081.8,931.3h-3v6h3
			V931.3L1081.8,931.3z M1081.8,937.3h-3v0.1L1081.8,937.3L1081.8,937.3L1081.8,937.3z M1081.8,943.4h-3v0.1L1081.8,943.4
			L1081.8,943.4L1081.8,943.4z M1081.8,943.5h-3v6h3V943.5L1081.8,943.5z M1081.8,949.6h-3v0.1L1081.8,949.6L1081.8,949.6
			L1081.8,949.6z M1081.8,955.6h-3v0.1L1081.8,955.6L1081.8,955.6L1081.8,955.6z M1081.8,955.7h-3v6h3V955.7L1081.8,955.7z
			 M1081.8,961.8h-3v0.1L1081.8,961.8L1081.8,961.8L1081.8,961.8z M1081.8,967.8h-3v0.1L1081.8,967.8L1081.8,967.8L1081.8,967.8z
			 M1081.8,968h-3v6h3V968L1081.8,968z M1081.8,974h-3v0.1L1081.8,974L1081.8,974L1081.8,974z M1081.8,980.1h-3v0.1L1081.8,980.1
			L1081.8,980.1L1081.8,980.1z M1081.8,980.2h-3v6h3V980.2L1081.8,980.2z M1081.8,986.2h-3v0.1L1081.8,986.2L1081.8,986.2
			L1081.8,986.2z M1081.8,992.3h-3v0.1L1081.8,992.3L1081.8,992.3L1081.8,992.3z M1081.8,992.4h-3v6h3V992.4L1081.8,992.4z
			 M1081.8,998.4h-3v0.1L1081.8,998.4L1081.8,998.4L1081.8,998.4z M1081.8,1004.5h-3v0.1L1081.8,1004.5L1081.8,1004.5L1081.8,1004.5
			z M1081.8,1004.6h-3v3.4h3l0,0l0,0l0,0V1004.6L1081.8,1004.6z M1087.6,1005L1087.6,1005l-0.1,3h0.1V1005L1087.6,1005z
			 M1093.7,1005h-6v3h6V1005L1093.7,1005z M1093.8,1005L1093.8,1005l-0.1,3h0.1V1005L1093.8,1005z M1099.9,1005L1099.9,1005l-0.1,3
			h0.1V1005L1099.9,1005z M1105.9,1005h-6v3h6V1005L1105.9,1005z M1106,1005L1106,1005l-0.1,3h0.1V1005L1106,1005z M1112.1,1005
			L1112.1,1005l-0.1,3h0.1V1005L1112.1,1005z M1118.1,1005h-6v3h6V1005L1118.1,1005z M1118.2,1005L1118.2,1005l-0.1,3h0.1V1005
			L1118.2,1005z M1124.3,1005L1124.3,1005l-0.1,3h0.1V1005L1124.3,1005z M1130.3,1005h-6v3h6V1005L1130.3,1005z M1130.5,1005
			L1130.5,1005l-0.1,3h0.1V1005L1130.5,1005z M1136.5,1005L1136.5,1005l-0.1,3h0.1V1005L1136.5,1005z M1142.6,1005h-6v3h6V1005
			L1142.6,1005z M1142.7,1005L1142.7,1005l-0.1,3h0.1V1005L1142.7,1005z M1148.7,1005L1148.7,1005l-0.1,3h0.1V1005L1148.7,1005z
			 M1154.8,1005h-6v3h6V1005L1154.8,1005z M1154.9,1005L1154.9,1005l-0.1,3h0.1V1005L1154.9,1005z M1161,1005L1161,1005l-0.1,3h0.1
			V1005L1161,1005z M1167,1005h-6v3h6V1005L1167,1005z M1167.1,1005L1167.1,1005l-0.1,3h0.1V1005L1167.1,1005z M1173.2,1005
			L1173.2,1005l-0.1,3h0.1V1005L1173.2,1005z M1179.2,1005h-6v3h6V1005L1179.2,1005z M1179.3,1005L1179.3,1005l-0.1,3h0.1V1005
			L1179.3,1005z M1185.4,1005L1185.4,1005l-0.1,3h0.1V1005L1185.4,1005z M1191.4,1005h-6v3h6V1005L1191.4,1005z M1191.6,1005
			L1191.6,1005l-0.1,3h0.1V1005L1191.6,1005z M1197.6,1005L1197.6,1005l-0.1,3h0.1V1005L1197.6,1005z M1203.7,1005h-6v3h6V1005
			L1203.7,1005z M1203.8,1005L1203.8,1005l-0.1,3h0.1V1005L1203.8,1005z M1209.8,1005L1209.8,1005l-0.1,3h0.1V1005L1209.8,1005z
			 M1215.9,1005h-6v3h6V1005L1215.9,1005z M1216,1005L1216,1005l-0.1,3h0.1V1005L1216,1005z M1222.1,1005L1222.1,1005l-0.1,3h0.1
			V1005L1222.1,1005z M1228.1,1005h-6v3h6V1005L1228.1,1005z M1228.2,1005L1228.2,1005l-0.1,3h0.1V1005L1228.2,1005z M1234.3,1005
			L1234.3,1005l-0.1,3h0.1V1005L1234.3,1005z M1240.3,1005h-6v3h6V1005L1240.3,1005z M1240.4,1005L1240.4,1005l-0.1,3h0.1V1005
			L1240.4,1005z M1246.5,1005L1246.5,1005l-0.1,3h0.1V1005L1246.5,1005z M1252.5,1005h-6v3h6V1005L1252.5,1005z M1252.7,1005
			L1252.7,1005l-0.1,3h0.1V1005L1252.7,1005z M1258.7,1005L1258.7,1005l-0.1,3h0.1V1005L1258.7,1005z M1264.8,1005h-6v3h6V1005
			L1264.8,1005z M1264.9,1005L1264.9,1005l-0.1,3h0.1V1005L1264.9,1005z M1270.9,1005L1270.9,1005l-0.1,3h0.1V1005L1270.9,1005z
			 M1277,1005h-6v3h6V1005L1277,1005z M1277.1,1005L1277.1,1005l-0.1,3h0.1V1005L1277.1,1005z M1283.2,1005L1283.2,1005l-0.1,3h0.1
			V1005L1283.2,1005z M1289.2,1005h-6v3h6V1005L1289.2,1005z M1289.3,1005L1289.3,1005l-0.1,3h0.1V1005L1289.3,1005z M1295.4,1005
			L1295.4,1005l-0.1,3h0.1V1005L1295.4,1005z M1301.4,1005h-6v3h6V1005L1301.4,1005z M1301.5,1005L1301.5,1005l-0.1,3h0.1V1005
			L1301.5,1005z M1307.6,1005L1307.6,1005l-0.1,3h0.1V1005L1307.6,1005z M1313.6,1005h-6v3h6V1005L1313.6,1005z M1313.8,1005
			L1313.8,1005l-0.1,3h0.1V1005L1313.8,1005z M1319.8,1005L1319.8,1005l-0.1,3h0.1V1005L1319.8,1005z M1325.9,1005h-6v3h6V1005
			L1325.9,1005z M1326,1005L1326,1005l-0.1,3h0.1V1005L1326,1005z M1332,1005L1332,1005l-0.1,3h0.1V1005L1332,1005z M1338.1,1005h-6
			v3h6V1005L1338.1,1005z M1338.2,1005L1338.2,1005l-0.1,3h0.1V1005L1338.2,1005z M1344.3,1005L1344.3,1005l-0.1,3h0.1V1005
			L1344.3,1005z M1350.3,1005h-6v3h6V1005L1350.3,1005z M1350.4,1005L1350.4,1005l-0.1,3h0.1V1005L1350.4,1005z M1356.5,1005
			L1356.5,1005l-0.1,3h0.1V1005L1356.5,1005z M1362.5,1005h-6v3h6V1005L1362.5,1005z M1362.6,1005L1362.6,1005l-0.1,3h0.1V1005
			L1362.6,1005z M1368.7,1005L1368.7,1005l-0.1,3h0.1V1005L1368.7,1005z M1374.7,1005h-6v3h6V1005L1374.7,1005z M1374.9,1005
			L1374.9,1005l-0.1,3h0.1V1005L1374.9,1005z M1380.9,1005L1380.9,1005l-0.1,3h0.1V1005L1380.9,1005z M1387,1005h-6v3h6V1005
			L1387,1005z M1387.1,1005L1387.1,1005l-0.1,3h0.1V1005L1387.1,1005z M1393.1,1005L1393.1,1005l-0.1,3h0.1V1005L1393.1,1005z
			 M1399.2,1005h-6v3h6V1005L1399.2,1005z M1399.3,1005L1399.3,1005l-0.1,3h0.1V1005L1399.3,1005z M1405.4,1005L1405.4,1005l-0.1,3
			h0.1V1005L1405.4,1005z M1411.4,1005h-6v3h6V1005L1411.4,1005z M1411.5,1005L1411.5,1005l-0.1,3h0.1V1005L1411.5,1005z
			 M1417.6,1005L1417.6,1005l-0.1,3h0.1V1005L1417.6,1005z M1423.6,1005h-6v3h6V1005L1423.6,1005z M1423.7,1005L1423.7,1005l-0.1,3
			h0.1V1005L1423.7,1005z M1429.8,1005L1429.8,1005l-0.1,3h0.1V1005L1429.8,1005z M1435.8,1005h-6v3h6V1005L1435.8,1005z M1436,1005
			L1436,1005l-0.1,3h0.1V1005L1436,1005z M1442,1005L1442,1005l-0.1,3h0.1V1005L1442,1005z M1448.1,1005h-6v3h6V1005L1448.1,1005z
			 M1448.2,1005L1448.2,1005l-0.1,3h0.1V1005L1448.2,1005z M1454.2,1005L1454.2,1005l-0.1,3h0.1V1005L1454.2,1005z M1460.3,1005h-6
			v3h6V1005L1460.3,1005z M1460.4,1005L1460.4,1005l-0.1,3h0.1V1005L1460.4,1005z M1466.5,1005L1466.5,1005l-0.1,3h0.1V1005
			L1466.5,1005z M1472.5,1005h-6v3h6V1005L1472.5,1005z M1472.6,1005L1472.6,1005l-0.1,3h0.1V1005L1472.6,1005z M1478.7,1005
			L1478.7,1005l-0.1,3h0.1V1005L1478.7,1005z M1484.7,1005h-6v3h6V1005L1484.7,1005z M1484.8,1005L1484.8,1005l-0.1,3h0.1V1005
			L1484.8,1005z M1490.9,1005L1490.9,1005l-0.1,3h0.1V1005L1490.9,1005z M1496.9,1005h-6v3h6V1005L1496.9,1005z M1497.1,1005
			L1497.1,1005l-0.1,3h0.1V1005L1497.1,1005z M1503.1,1005L1503.1,1005l-0.1,3h0.1V1005L1503.1,1005z M1509.2,1005h-6v3h6V1005
			L1509.2,1005z M1509.3,1005L1509.3,1005l-0.1,3h0.1V1005L1509.3,1005z M1515.3,1005L1515.3,1005l-0.1,3h0.1V1005L1515.3,1005z
			 M1521.4,1005h-6v3h6V1005L1521.4,1005z M1521.5,1005L1521.5,1005l-0.1,3h0.1V1005L1521.5,1005z M1527.6,1005L1527.6,1005l-0.1,3
			h0.1V1005L1527.6,1005z M1533.6,1005h-6v3h6V1005L1533.6,1005z M1533.7,1005L1533.7,1005l-0.1,3h0.1V1005L1533.7,1005z
			 M1539.8,1005L1539.8,1005l-0.1,3h0.1V1005L1539.8,1005z M1545.8,1005h-6v3h6V1005L1545.8,1005z M1545.9,1005L1545.9,1005l-0.1,3
			h0.1V1005L1545.9,1005z M1552,1005L1552,1005l-0.1,3h0.1V1005L1552,1005z M1558,1005h-6v3h6V1005L1558,1005z M1558.2,1005
			L1558.2,1005l-0.1,3h0.1V1005L1558.2,1005z M1564.2,1005L1564.2,1005l-0.1,3h0.1V1005L1564.2,1005z M1570.3,1005h-6v3h6V1005
			L1570.3,1005z M1570.4,1005L1570.4,1005l-0.1,3h0.1V1005L1570.4,1005z M1576.4,1005L1576.4,1005l-0.1,3h0.1V1005L1576.4,1005z
			 M1582.5,1005h-6v3h6V1005L1582.5,1005z M1582.6,1005L1582.6,1005l-0.1,3h0.1V1005L1582.6,1005z M1588.7,1005L1588.7,1005l-0.1,3
			h0.1V1005L1588.7,1005z M1594.7,1005h-6v3h6V1005L1594.7,1005z M1594.8,1005L1594.8,1005l-0.1,3h0.1V1005L1594.8,1005z
			 M1600.9,1005L1600.9,1005l-0.1,3h0.1V1005L1600.9,1005z M1606.9,1005h-6v3h6V1005L1606.9,1005z M1607,1005L1607,1005l-0.1,3h0.1
			V1005L1607,1005z M1613.1,1005L1613.1,1005l-0.1,3h0.1V1005L1613.1,1005z M1619.1,1005h-6v3h6V1005L1619.1,1005z M1619.3,1005
			L1619.3,1005l-0.1,3h0.1V1005L1619.3,1005z M1625.3,1005L1625.3,1005l-0.1,3h0.1V1005L1625.3,1005z M1631.4,1005h-6v3h6V1005
			L1631.4,1005z M1631.5,1005L1631.5,1005l-0.1,3h0.1V1005L1631.5,1005z M1637.5,1005L1637.5,1005l-0.1,3h0.1V1005L1637.5,1005z
			 M1643.6,1005h-6v3h6V1005L1643.6,1005z M1643.7,1005L1643.7,1005l-0.1,3h0.1V1005L1643.7,1005z M1649.8,1005L1649.8,1005l-0.1,3
			h0.1V1005L1649.8,1005z M1655.8,1005h-6v3h6V1005L1655.8,1005z M1655.9,1005L1655.9,1005l-0.1,3h0.1V1005L1655.9,1005z M1662,1005
			L1662,1005l-0.1,3h0.1V1005L1662,1005z M1668,1005h-6v3h6V1005L1668,1005z M1668.1,1005L1668.1,1005l-0.1,3h0.1V1005L1668.1,1005z
			 M1674.2,1005L1674.2,1005l-0.1,3h0.1V1005L1674.2,1005z M1680.2,1005h-6v3h6V1005L1680.2,1005z M1680.4,1005L1680.4,1005l-0.1,3
			h0.1V1005L1680.4,1005z M1686.4,1005L1686.4,1005l-0.1,3h0.1V1005L1686.4,1005z M1692.5,1005h-6v3h6V1005L1692.5,1005z
			 M1692.6,1005L1692.6,1005l-0.1,3h0.1V1005L1692.6,1005z M1698.6,1005L1698.6,1005l-0.1,3h0.1V1005L1698.6,1005z M1704.7,1005h-6
			v3h6V1005L1704.7,1005z M1704.8,1005L1704.8,1005l-0.1,3h0.1V1005L1704.8,1005z M1710.9,1005L1710.9,1005l-0.1,3h0.1V1005
			L1710.9,1005z M1716.9,1005h-6v3h6V1005L1716.9,1005z M1717,1005L1717,1005l-0.1,3h0.1V1005L1717,1005z M1723.1,1005L1723.1,1005
			l-0.1,3h0.1V1005L1723.1,1005z M1729.1,1005h-6v3h6V1005L1729.1,1005z M1729.2,1005L1729.2,1005l-0.1,3h0.1V1005L1729.2,1005z
			 M1735.3,1005L1735.3,1005l-0.1,3h0.1V1005L1735.3,1005z M1741.3,1005h-6v3h6V1005L1741.3,1005z M1741.5,1005L1741.5,1005l-0.1,3
			h0.1V1005L1741.5,1005z M1747.5,1005L1747.5,1005l-0.1,3h0.1V1005L1747.5,1005z M1753.6,1005h-6v3h6V1005L1753.6,1005z
			 M1753.7,1005L1753.7,1005l-0.1,3h0.1V1005L1753.7,1005z M1759.7,1005L1759.7,1005l-0.1,3h0.1V1005L1759.7,1005z M1764.8,1005
			h-5.1v3h5.1V1005L1764.8,1005z M1764.8,1000.9h-3v0.1L1764.8,1000.9L1764.8,1000.9L1764.8,1000.9z M1764.8,994.8h-3v6h3V994.8
			L1764.8,994.8z M1764.8,994.7h-3v0.1L1764.8,994.7L1764.8,994.7L1764.8,994.7z M1764.8,988.7h-3v0.1L1764.8,988.7L1764.8,988.7
			L1764.8,988.7z M1764.8,982.6h-3v6h3V982.6L1764.8,982.6z M1764.8,982.5h-3v0.1L1764.8,982.5L1764.8,982.5L1764.8,982.5z
			 M1764.8,976.5h-3v0.1L1764.8,976.5L1764.8,976.5L1764.8,976.5z M1764.8,970.4h-3v6h3V970.4L1764.8,970.4z M1764.8,970.3h-3v0.1
			L1764.8,970.3L1764.8,970.3L1764.8,970.3z M1764.8,964.2h-3v0.1L1764.8,964.2L1764.8,964.2L1764.8,964.2z M1764.8,958.2h-3v6h3
			V958.2L1764.8,958.2z M1764.8,958.1h-3v0.1L1764.8,958.1L1764.8,958.1L1764.8,958.1z M1764.8,952h-3v0.1L1764.8,952L1764.8,952
			L1764.8,952z M1764.8,946h-3v6h3V946L1764.8,946z M1764.8,945.8h-3v0.1L1764.8,945.8L1764.8,945.8L1764.8,945.8z M1764.8,939.8h-3
			v0.1L1764.8,939.8L1764.8,939.8L1764.8,939.8z M1764.8,933.7h-3v6h3V933.7L1764.8,933.7z M1764.8,933.6h-3v0.1L1764.8,933.6
			L1764.8,933.6L1764.8,933.6z M1764.8,927.6h-3v0.1L1764.8,927.6L1764.8,927.6L1764.8,927.6z M1764.8,921.5h-3v6h3V921.5
			L1764.8,921.5z M1764.8,921.4h-3v0.1L1764.8,921.4L1764.8,921.4L1764.8,921.4z M1764.8,915.4h-3v0.1L1764.8,915.4L1764.8,915.4
			L1764.8,915.4z M1764.8,909.3h-3v6h3V909.3L1764.8,909.3z M1764.8,909.2h-3v0.1L1764.8,909.2L1764.8,909.2L1764.8,909.2z
			 M1764.8,903.1h-3v0.1L1764.8,903.1L1764.8,903.1L1764.8,903.1z M1764.8,897.1h-3v6h3V897.1L1764.8,897.1z M1764.8,897h-3v0.1
			L1764.8,897L1764.8,897L1764.8,897z M1764.8,890.9h-3v0.1L1764.8,890.9L1764.8,890.9L1764.8,890.9z M1764.8,884.9h-3v6h3V884.9
			L1764.8,884.9z M1764.8,884.7h-3v0.1L1764.8,884.7L1764.8,884.7L1764.8,884.7z M1764.8,878.7h-3v0.1L1764.8,878.7L1764.8,878.7
			L1764.8,878.7z M1764.8,872.6h-3v6h3V872.6L1764.8,872.6z M1764.8,872.5h-3v0.1L1764.8,872.5L1764.8,872.5L1764.8,872.5z
			 M1764.8,866.5h-3v0.1L1764.8,866.5L1764.8,866.5L1764.8,866.5z M1764.8,860.4h-3v6h3V860.4L1764.8,860.4z M1764.8,860.3h-3v0.1
			L1764.8,860.3L1764.8,860.3L1764.8,860.3z M1764.8,854.3h-3v0.1L1764.8,854.3L1764.8,854.3L1764.8,854.3z M1764.8,848.2h-3v6h3
			V848.2L1764.8,848.2z M1764.8,848.1h-3v0.1L1764.8,848.1L1764.8,848.1L1764.8,848.1z M1764.8,842h-3v0.1L1764.8,842L1764.8,842
			L1764.8,842z M1764.8,836h-3v6h3V836L1764.8,836z M1764.8,835.9h-3v0.1L1764.8,835.9L1764.8,835.9L1764.8,835.9z M1764.8,829.8h-3
			v0.1L1764.8,829.8L1764.8,829.8L1764.8,829.8z M1764.8,823.8h-3v6h3V823.8L1764.8,823.8z M1764.8,823.6h-3v0.1L1764.8,823.6
			L1764.8,823.6L1764.8,823.6z M1764.8,817.6h-3v0.1L1764.8,817.6L1764.8,817.6L1764.8,817.6z M1764.8,811.5h-3v6h3V811.5
			L1764.8,811.5z M1764.8,811.4h-3v0.1L1764.8,811.4L1764.8,811.4L1764.8,811.4z M1764.8,805.4h-3v0.1L1764.8,805.4L1764.8,805.4
			L1764.8,805.4z M1764.8,799.3h-3v6h3V799.3L1764.8,799.3z M1764.8,799.2h-3v0.1L1764.8,799.2L1764.8,799.2L1764.8,799.2z
			 M1764.8,793.2h-3v0.1L1764.8,793.2L1764.8,793.2L1764.8,793.2z M1764.8,787.1h-3v6h3V787.1L1764.8,787.1z M1764.8,787h-3v0.1
			L1764.8,787L1764.8,787L1764.8,787z M1764.8,780.9h-3v0.1L1764.8,780.9L1764.8,780.9L1764.8,780.9z M1764.8,774.9h-3v6h3V774.9
			L1764.8,774.9z M1764.8,774.8h-3v0.1L1764.8,774.8L1764.8,774.8L1764.8,774.8z M1764.8,768.7h-3v0.1L1764.8,768.7L1764.8,768.7
			L1764.8,768.7z M1764.8,762.7h-3v6h3V762.7L1764.8,762.7z M1764.8,762.5h-3v0.1L1764.8,762.5L1764.8,762.5L1764.8,762.5z
			 M1764.8,756.5h-3v0.1L1764.8,756.5L1764.8,756.5L1764.8,756.5z M1764.8,750.4h-3v6h3V750.4L1764.8,750.4z M1764.8,750.3h-3v0.1
			L1764.8,750.3L1764.8,750.3L1764.8,750.3z M1764.8,744.3h-3v0.1L1764.8,744.3L1764.8,744.3L1764.8,744.3z"/>
	</g>
	<g>
		<g>
			<g>
				<path class="st2" d="M1674.5,934.3h-76.8c-2.8,0-5.2-2.3-5.2-5.2V817.3c0-2.8,2.3-5.2,5.2-5.2h76.8c2.8,0,5.2,2.3,5.2,5.2v111.8
					C1679.7,932,1677.3,934.3,1674.5,934.3z"/>
				<path class="st1" d="M1674.5,936h-76.8c-3.8,0-6.9-3.1-6.9-6.9V817.3c0-3.8,3.1-6.9,6.9-6.9h76.8c3.8,0,6.9,3.1,6.9,6.9v111.8
					C1681.4,932.9,1678.3,936,1674.5,936z M1597.7,813.9c-1.9,0-3.4,1.5-3.4,3.4v111.8c0,1.9,1.5,3.4,3.4,3.4h76.8
					c1.9,0,3.4-1.5,3.4-3.4V817.3c0-1.9-1.5-3.4-3.4-3.4H1597.7z"/>
			</g>
			<g>
				<circle class="st3" cx="1636.1" cy="922.5" r="6.9"/>
				<path class="st1" d="M1636.1,931.1c-4.8,0-8.7-3.9-8.7-8.7s3.9-8.7,8.7-8.7s8.7,3.9,8.7,8.7
					C1644.7,927.2,1640.9,931.1,1636.1,931.1z M1636.1,917.3c-2.9,0-5.2,2.3-5.2,5.2s2.3,5.2,5.2,5.2c2.9,0,5.2-2.3,5.2-5.2
					S1639,917.3,1636.1,917.3z"/>
			</g>
			<g>
				<path class="st0" d="M1668.4,906.4H1603c-0.9,0-1.7-0.8-1.7-1.7v-74.9c0-0.9,0.8-1.7,1.7-1.7h65.4c0.9,0,1.7,0.8,1.7,1.7v74.9
					C1670.2,905.6,1669.4,906.4,1668.4,906.4z"/>
				<path class="st1" d="M1668.4,908.1H1603c-1.9,0-3.4-1.5-3.4-3.4v-74.9c0-1.9,1.5-3.4,3.4-3.4h65.4c1.9,0,3.4,1.5,3.4,3.4v74.9
					C1671.9,906.5,1670.3,908.1,1668.4,908.1z M1668.4,904.7v1.7V904.7L1668.4,904.7L1668.4,904.7z M1603,829.7v74.9h65.4l0-74.9
					H1603z"/>
			</g>
			<rect x="1624.6" y="819" class="st1" width="20.1" height="3.4"/>
			<path class="st1" d="M1635.7,882.6c-0.6,0-1.1-0.2-1.4-0.6l-11.8-11.4c-0.1-0.1-0.3-0.3-0.5-0.5c-0.2-0.2-0.6-0.7-1.1-1.3
				c-0.5-0.7-1-1.3-1.4-1.9c-0.4-0.7-0.8-1.5-1.1-2.5c-0.3-1-0.5-2-0.5-2.9c0-3,0.9-5.4,2.7-7.2c1.8-1.7,4.2-2.6,7.3-2.6
				c0.9,0,1.8,0.2,2.7,0.5c0.9,0.3,1.7,0.7,2.5,1.2c0.7,0.5,1.4,0.9,1.9,1.4c0.3,0.2,0.6,0.5,0.9,0.8c0.3-0.3,0.6-0.5,0.9-0.8
				c0.5-0.4,1.2-0.9,1.9-1.3c0.8-0.5,1.6-0.9,2.5-1.2c0.9-0.3,1.8-0.5,2.7-0.5c3.1,0,5.5,0.9,7.3,2.6c1.8,1.7,2.7,4.1,2.7,7.2
				s-1.5,6.1-4.6,9.2l-11.9,11.4C1636.8,882.4,1636.3,882.6,1635.7,882.6z M1627.8,855.9c-0.6,0-1.2,0-1.7,0.1
				c-0.5,0.1-1,0.3-1.6,0.5c-0.5,0.2-0.9,0.6-1.3,0.9c-0.3,0.4-0.6,0.9-0.9,1.6c-0.2,0.7-0.4,1.5-0.4,2.4c0,1.9,1.1,3.9,3.3,6.1
				l10.4,10.1l10.4-10c2.2-2.2,3.3-4.3,3.3-6.1c0-0.9-0.1-1.7-0.4-2.4c-0.2-0.7-0.5-1.2-0.9-1.6c-0.3-0.4-0.8-0.7-1.3-0.9
				c-0.5-0.3-1.1-0.4-1.6-0.5c-0.5-0.1-1.1-0.1-1.7-0.1c-0.5,0-1.1,0.1-1.8,0.4c-0.7,0.3-1.3,0.7-1.9,1.1c-0.6,0.5-1.1,0.9-1.6,1.3
				c-0.4,0.4-0.8,0.8-1.1,1.1c-0.4,0.5-0.9,0.7-1.6,0.7c-0.7,0-1.2-0.3-1.6-0.7c-0.3-0.3-0.6-0.7-1.1-1.1c-0.4-0.4-1-0.8-1.6-1.3
				c-0.6-0.4-1.2-0.8-1.9-1.1C1628.9,856,1628.3,855.9,1627.8,855.9z"/>
			<path class="st1" d="M1652.8,861.5c0,2.8-1.4,5.6-4.4,8.5l-11.8,11.4c-0.2,0.2-0.5,0.3-0.8,0.3c-0.3,0-0.6-0.1-0.8-0.3L1623,870
				c-0.1-0.1-0.3-0.3-0.5-0.5c-0.2-0.2-0.6-0.6-1.1-1.2c-0.5-0.6-0.9-1.2-1.3-1.9c-0.4-0.6-0.7-1.4-1-2.3c-0.3-0.9-0.4-1.8-0.4-2.6
				c0-2.8,0.8-5,2.4-6.5c1.6-1.6,3.8-2.4,6.7-2.4c0.8,0,1.6,0.1,2.4,0.4c0.8,0.3,1.6,0.6,2.3,1.1c0.7,0.5,1.3,0.9,1.8,1.3
				c0.5,0.4,1,0.8,1.4,1.3c0.5-0.5,0.9-0.9,1.4-1.3c0.5-0.4,1.1-0.8,1.8-1.3c0.7-0.5,1.5-0.8,2.3-1.1c0.8-0.3,1.6-0.4,2.4-0.4
				c2.8,0,5.1,0.8,6.7,2.4C1652,856.5,1652.8,858.7,1652.8,861.5z M1646.8,868.2c2.4-2.4,3.6-4.6,3.6-6.8c0-1-0.1-1.9-0.4-2.7
				c-0.3-0.8-0.6-1.4-1-1.9c-0.4-0.5-0.9-0.8-1.5-1.1c-0.6-0.3-1.2-0.5-1.8-0.6c-0.6-0.1-1.2-0.2-1.9-0.2c-0.7,0-1.4,0.2-2.1,0.5
				c-0.8,0.3-1.5,0.7-2.1,1.2c-0.6,0.5-1.2,0.9-1.6,1.4c-0.5,0.4-0.8,0.8-1.1,1.2c-0.2,0.3-0.5,0.4-0.9,0.4c-0.4,0-0.7-0.1-0.9-0.4
				c-0.3-0.4-0.7-0.7-1.1-1.2c-0.5-0.4-1-0.9-1.6-1.4c-0.6-0.5-1.3-0.9-2.1-1.2c-0.8-0.3-1.5-0.5-2.1-0.5c-0.7,0-1.3,0-1.9,0.2
				c-0.6,0.1-1.2,0.3-1.8,0.6c-0.6,0.3-1.1,0.7-1.5,1.1c-0.4,0.5-0.8,1.1-1,1.9c-0.3,0.8-0.4,1.7-0.4,2.7c0,2.1,1.2,4.4,3.6,6.7
				l11,10.6L1646.8,868.2L1646.8,868.2z"/>
		</g>
		<g>
			<g>
				<g>
					<g>
						<path class="st2" d="M1332.7,919.6v7c0,3.2,2.9,7.5,6.1,7.5h167.9c3.2,0,4.4-4.3,4.4-7.5v-7H1332.7z"/>
						<path class="st1" d="M1506.7,936h-167.9c-4.2,0-7.9-5.1-7.9-9.3v-8.9h182v8.9C1512.8,931.2,1510.9,936,1506.7,936z
							 M1334.5,921.4v5.2c0,2.3,2.2,5.7,4.2,5.7h167.9c1.7,0,2.5-3.4,2.5-5.7v-5.2H1334.5z"/>
					</g>
					<g>
						<path class="st2" d="M1503.7,919.6v-100c0-3.2-2.1-7.4-5.3-7.4h-151.6c-3.2,0-3.3,4.2-3.3,7.4v100L1503.7,919.6L1503.7,919.6z
							"/>
						<path class="st1" d="M1505.6,921.4h-163.8V819.6c0-3,0-9.2,5.1-9.2h151.6c4.2,0,7.1,4.8,7.1,9.2V921.4z M1345.4,917.8h156.5
							v-98.2c0-2.4-1.6-5.6-3.5-5.6h-151.6c-1.3,0-1.4,2.7-1.4,5.6V917.8z"/>
					</g>
					<g>
						<rect x="1348.2" y="819.3" class="st3" width="149.2" height="94"/>
						<path class="st1" d="M1498.3,914.2h-151v-95.8h151V914.2z M1349.1,912.4h147.4v-92.2h-147.4V912.4z"/>
					</g>
					<g>
						<path class="st2" d="M1440.4,920.9L1440.4,920.9c0,2.1-1.7,3.7-3.7,3.7h-29.1c-2.1,0-3.7-1.7-3.7-3.7l0,0"/>
						<path class="st1" d="M1436.6,925.5h-29.1c-2.6,0-4.7-2.1-4.7-4.7h1.8c0,1.6,1.3,2.8,2.8,2.8h29.1c1.6,0,2.8-1.3,2.8-2.8h1.8
							C1441.3,923.4,1439.2,925.5,1436.6,925.5z"/>
					</g>
				</g>
			</g>
			<g>
				<path class="st0" d="M1476,900.8h-107.7c-1.6,0-3-1.3-3-3v-65.7c0-1.6,1.3-3,3-3H1476c1.6,0,3,1.3,3,3v65.7
					C1479,899.5,1477.6,900.8,1476,900.8z"/>
				<path class="st1" d="M1476,902.7h-107.7c-2.7,0-4.8-2.2-4.8-4.8v-65.7c0-2.7,2.2-4.8,4.8-4.8H1476c2.7,0,4.8,2.2,4.8,4.8v65.7
					C1480.8,900.5,1478.6,902.7,1476,902.7z M1368.3,830.9c-0.6,0-1.2,0.5-1.2,1.2v65.7c0,0.6,0.5,1.2,1.2,1.2H1476
					c0.6,0,1.2-0.5,1.2-1.2v-65.7c0-0.6-0.5-1.2-1.2-1.2H1368.3z"/>
			</g>
			<g>
				<circle class="st0" cx="1374.6" cy="837.4" r="3.6"/>
				<path class="st1" d="M1374.6,841.9c-2.5,0-4.5-2-4.5-4.5c0-2.5,2-4.5,4.5-4.5c2.5,0,4.5,2,4.5,4.5
					C1379.1,839.9,1377.1,841.9,1374.6,841.9z M1374.6,834.7c-1.5,0-2.7,1.2-2.7,2.7c0,1.5,1.2,2.7,2.7,2.7c1.5,0,2.7-1.2,2.7-2.7
					C1377.3,835.9,1376.1,834.7,1374.6,834.7z"/>
			</g>
			<g>
				<circle class="st0" cx="1385.1" cy="837.4" r="3.6"/>
				<path class="st1" d="M1385.1,841.9c-2.5,0-4.5-2-4.5-4.5c0-2.5,2-4.5,4.5-4.5c2.5,0,4.5,2,4.5,4.5
					C1389.6,839.9,1387.6,841.9,1385.1,841.9z M1385.1,834.7c-1.5,0-2.7,1.2-2.7,2.7c0,1.5,1.2,2.7,2.7,2.7c1.5,0,2.7-1.2,2.7-2.7
					C1387.8,835.9,1386.6,834.7,1385.1,834.7z"/>
			</g>
			<rect x="1365.3" y="844.5" class="st1" width="113.7" height="1.8"/>
			<rect x="1393" y="845.4" class="st1" width="1.8" height="55.4"/>
		</g>
		<g>
			<g>
				<g>
					<rect x="1140.9" y="896.3" class="st4" width="122.5" height="37.2"/>
					<path class="st1" d="M1264.9,934.9h-125.4v-40.1h125.4V934.9z M1142.3,932H1262v-34.3h-119.6V932z"/>
				</g>
				<circle class="st1" cx="1157.6" cy="909.3" r="3.5"/>
				<g>
					<g>
						<defs>
							<rect id="SVGID_1_" x="1166.1" y="902.5" width="83" height="23.1"/>
						</defs>
						<clipPath id="SVGID_2_">
							<use xlink:href="#SVGID_1_"  style="overflow:visible;"/>
						</clipPath>
						<g class="st5">
							
								<rect x="1099.9" y="914.1" transform="matrix(0.7071 -0.7071 0.7071 0.7071 -320.31 1056.4062)" class="st1" width="30.3" height="1.4"/>
							
								<rect x="1109.1" y="914.1" transform="matrix(0.7071 -0.7071 0.7071 0.7071 -317.6202 1062.8998)" class="st1" width="30.3" height="1.4"/>
							
								<rect x="1118.3" y="914.1" transform="matrix(0.7071 -0.7071 0.7071 0.7071 -314.9305 1069.3934)" class="st1" width="30.3" height="1.4"/>
							
								<rect x="1127.4" y="914.1" transform="matrix(0.7071 -0.7071 0.7071 0.7071 -312.2408 1075.8871)" class="st1" width="30.3" height="1.4"/>
							
								<rect x="1136.6" y="914.1" transform="matrix(0.7071 -0.7071 0.7071 0.7071 -309.5511 1082.3809)" class="st1" width="30.3" height="1.4"/>
							
								<rect x="1145.8" y="914.1" transform="matrix(0.7071 -0.7071 0.7071 0.7071 -306.8613 1088.8744)" class="st1" width="30.3" height="1.4"/>
							
								<rect x="1155" y="914.1" transform="matrix(0.7071 -0.7071 0.7071 0.7071 -304.1717 1095.368)" class="st1" width="30.3" height="1.4"/>
							
								<rect x="1164.2" y="914.1" transform="matrix(0.7071 -0.7071 0.7071 0.7071 -301.4818 1101.8616)" class="st1" width="30.3" height="1.4"/>
							
								<rect x="1173.4" y="914.1" transform="matrix(0.7071 -0.7071 0.7071 0.7071 -298.7921 1108.3551)" class="st1" width="30.3" height="1.4"/>
							
								<rect x="1182.5" y="914.1" transform="matrix(0.7071 -0.7071 0.7071 0.7071 -296.1032 1114.8483)" class="st1" width="30.3" height="1.4"/>
							
								<rect x="1191.7" y="914.1" transform="matrix(0.7071 -0.7071 0.7071 0.7071 -293.4135 1121.3418)" class="st1" width="30.3" height="1.4"/>
							
								<rect x="1200.9" y="914.1" transform="matrix(0.7071 -0.7071 0.7071 0.7071 -290.724 1127.8358)" class="st1" width="30.3" height="1.4"/>
							
								<rect x="1210.1" y="914.1" transform="matrix(0.7071 -0.7071 0.7071 0.7071 -288.0341 1134.3293)" class="st1" width="30.3" height="1.4"/>
							
								<rect x="1219.3" y="914.1" transform="matrix(0.7071 -0.7071 0.7071 0.7071 -285.3443 1140.8229)" class="st1" width="30.3" height="1.4"/>
							
								<rect x="1228.5" y="914.1" transform="matrix(0.7071 -0.7071 0.7071 0.7071 -282.6538 1147.3171)" class="st1" width="30.3" height="1.4"/>
							
								<rect x="1237.6" y="914.1" transform="matrix(0.7071 -0.7071 0.7071 0.7071 -279.964 1153.8107)" class="st1" width="30.3" height="1.4"/>
							
								<rect x="1246.8" y="914.1" transform="matrix(0.7071 -0.7071 0.7071 0.7071 -277.2752 1160.3038)" class="st1" width="30.3" height="1.4"/>
							
								<rect x="1256" y="914.1" transform="matrix(0.7071 -0.7071 0.7071 0.7071 -274.5854 1166.7974)" class="st1" width="30.3" height="1.4"/>
						</g>
					</g>
				</g>
				<rect x="1165.4" y="904.6" class="st1" width="1.4" height="22.4"/>
			</g>
			<g>
				<rect x="1200.7" y="873.5" class="st1" width="2.9" height="21.3"/>
			</g>
			<circle class="st1" cx="1202.1" cy="872.2" r="3.5"/>
			<g>
				<path class="st1" d="M1202.1,848.9c-6.4,0-12.2,2.6-16.5,6.8l7,7c2.4-2.4,5.8-3.9,9.5-3.9c3.7,0,7.1,1.5,9.5,3.9l7-7
					C1214.4,851.5,1208.6,848.9,1202.1,848.9z"/>
				<path class="st1" d="M1202.1,829.2c-11.9,0-22.6,4.8-30.4,12.6l7,7c6-6,14.3-9.7,23.4-9.7c9.1,0,17.4,3.7,23.4,9.7l7-7
					C1224.7,834,1214,829.2,1202.1,829.2z"/>
				<path class="st1" d="M1202.1,809.4c-17.3,0-33,7-44.3,18.4l7,7c9.6-9.6,22.8-15.5,37.4-15.5c14.6,0,27.8,5.9,37.4,15.5l7-7
					C1235.1,816.5,1219.4,809.4,1202.1,809.4z"/>
			</g>
		</g>
	</g>
	<g>
		<g>
			<line class="st6" x1="1421.8" y1="348.6" x2="1421.8" y2="313"/>
			<g>
				<path class="st1" d="M1421.8,356.5c1.4-3.7,3.7-8.4,6.2-11.2l-6.2,2.3l-6.2-2.3C1418.1,348.2,1420.4,352.8,1421.8,356.5z"/>
			</g>
		</g>
	</g>
	<g>
		<g>
			<line class="st6" x1="1421.8" y1="701.9" x2="1421.8" y2="666.2"/>
			<g>
				<path class="st1" d="M1421.8,709.8c1.4-3.7,3.7-8.4,6.2-11.2l-6.2,2.3l-6.2-2.3C1418.1,701.4,1420.5,706.1,1421.8,709.8z"/>
			</g>
		</g>
	</g>
	<g>
		<text transform="matrix(1 0 0 1 1260.7021 286.2155)" class="st1 st7 st8">Private Network</text>
	</g>
	<g>
		<g>
			<rect x="1234.6" y="111.3" class="st4" width="375.1" height="113.8"/>
			<path class="st1" d="M1614.1,229.5h-383.9V106.9h383.9V229.5z M1239.1,220.7h366.2V115.7h-366.2V220.7z"/>
		</g>
		<circle class="st1" cx="1285.9" cy="151.3" r="10.9"/>
		<g>
			<g>
				<defs>
					<rect id="SVGID_3_" x="1311.9" y="130.5" width="254.1" height="70.8"/>
				</defs>
				<clipPath id="SVGID_4_">
					<use xlink:href="#SVGID_3_"  style="overflow:visible;"/>
				</clipPath>
				<g class="st9">
					
						<rect x="1109.2" y="166" transform="matrix(0.7071 -0.7071 0.7071 0.7071 219.5431 866.3998)" class="st1" width="92.7" height="4.4"/>
					
						<rect x="1137.3" y="166" transform="matrix(0.7071 -0.7071 0.7071 0.7071 227.7758 886.2743)" class="st1" width="92.7" height="4.4"/>
					
						<rect x="1165.4" y="166" transform="matrix(0.7071 -0.7071 0.7071 0.7071 236.008 906.1494)" class="st1" width="92.7" height="4.4"/>
					
						<rect x="1193.6" y="166" transform="matrix(0.7071 -0.7071 0.7071 0.7071 244.2404 926.0239)" class="st1" width="92.7" height="4.4"/>
					
						<rect x="1221.7" y="166" transform="matrix(0.7071 -0.7071 0.7071 0.7071 252.4725 945.8989)" class="st1" width="92.7" height="4.4"/>
					
						<rect x="1249.8" y="166" transform="matrix(0.7071 -0.7071 0.7071 0.7071 260.7049 965.7736)" class="st1" width="92.7" height="4.4"/>
					
						<rect x="1277.9" y="166" transform="matrix(0.7071 -0.7071 0.7071 0.7071 268.937 985.6483)" class="st1" width="92.7" height="4.4"/>
					
						<rect x="1306" y="166" transform="matrix(0.7071 -0.7071 0.7071 0.7071 277.1697 1005.5227)" class="st1" width="92.7" height="4.4"/>
					
						<rect x="1334.1" y="166" transform="matrix(0.7071 -0.7071 0.7071 0.7071 285.402 1025.3973)" class="st1" width="92.7" height="4.4"/>
					
						<rect x="1362.2" y="166" transform="matrix(0.7071 -0.7071 0.7071 0.7071 293.6316 1045.2705)" class="st1" width="92.7" height="4.4"/>
					
						<rect x="1390.3" y="166" transform="matrix(0.7071 -0.7071 0.7071 0.7071 301.864 1065.145)" class="st1" width="92.7" height="4.4"/>
					
						<rect x="1418.4" y="166" transform="matrix(0.7071 -0.7071 0.7071 0.7071 310.0957 1085.0206)" class="st1" width="92.7" height="4.4"/>
					
						<rect x="1446.5" y="166" transform="matrix(0.7071 -0.7071 0.7071 0.7071 318.3284 1104.8951)" class="st1" width="92.7" height="4.4"/>
					
						<rect x="1474.6" y="166" transform="matrix(0.7071 -0.7071 0.7071 0.7071 326.5611 1124.7697)" class="st1" width="92.7" height="4.4"/>
					
						<rect x="1502.7" y="166" transform="matrix(0.7071 -0.7071 0.7071 0.7071 334.7957 1144.6462)" class="st1" width="92.7" height="4.4"/>
					
						<rect x="1530.8" y="166" transform="matrix(0.7071 -0.7071 0.7071 0.7071 343.0281 1164.5208)" class="st1" width="92.7" height="4.4"/>
					
						<rect x="1558.9" y="166" transform="matrix(0.7071 -0.7071 0.7071 0.7071 351.2577 1184.3939)" class="st1" width="92.7" height="4.4"/>
					
						<rect x="1587.1" y="166" transform="matrix(0.7071 -0.7071 0.7071 0.7071 359.4901 1204.2686)" class="st1" width="92.7" height="4.4"/>
				</g>
			</g>
		</g>
		<rect x="1309.6" y="136.8" class="st1" width="4.4" height="68.5"/>
	</g>
	<g>
		<text transform="matrix(1 0 0 1 1364.1155 633.5493)" class="st1 st10 st11">Edge Site</text>
	</g>
	<g>
		<text transform="matrix(1 0 0 1 1324.6899 979.2206)" class="st1 st10 st11">End User Nodes</text>
	</g>
	<g>
		<g>
			
				<ellipse transform="matrix(0.7071 -0.7071 0.7071 0.7071 73.9436 1147.2704)" class="st4" cx="1421.8" cy="484.4" rx="97.5" ry="97.5"/>
			<path class="st1" d="M1421.8,389.8c52.1,0,94.5,42.4,94.5,94.5s-42.4,94.5-94.5,94.5s-94.5-42.4-94.5-94.5
				S1369.7,389.8,1421.8,389.8 M1421.8,384c-55.4,0-100.4,44.9-100.4,100.4c0,55.4,44.9,100.4,100.4,100.4
				c55.4,0,100.4-44.9,100.4-100.4C1522.2,428.9,1477.3,384,1421.8,384L1421.8,384z"/>
		</g>
		<circle class="st1" cx="1464" cy="460.1" r="20"/>
		<circle class="st1" cx="1379.7" cy="460.1" r="20"/>
		<polygon class="st12" points="1420.6,534.9 1464.4,459.4 1379.3,459.4 		"/>
		<circle class="st1" cx="1421.4" cy="534.1" r="19.9"/>
	</g>
	<g>
		<path class="st1" d="M840.7,737.4h-6v3h3v3.8h3V737.4L840.7,737.4z M834.6,737.4L834.6,737.4l-0.1,3h0.1V737.4L834.6,737.4z
			 M828.6,737.4L828.6,737.4l-0.1,3h0.1V737.4L828.6,737.4z M828.4,737.4h-6v3h6V737.4L828.4,737.4z M822.4,737.4L822.4,737.4
			l-0.1,3h0.1V737.4L822.4,737.4z M816.3,737.4L816.3,737.4l-0.1,3h0.1V737.4L816.3,737.4z M816.2,737.4h-6v3h6V737.4L816.2,737.4z
			 M810.2,737.4L810.2,737.4l-0.1,3h0.1V737.4L810.2,737.4z M804.1,737.4L804.1,737.4l-0.1,3h0.1V737.4L804.1,737.4z M804,737.4h-6
			v3h6V737.4L804,737.4z M797.9,737.4L797.9,737.4l-0.1,3h0.1V737.4L797.9,737.4z M791.9,737.4L791.9,737.4l-0.1,3h0.1V737.4
			L791.9,737.4z M791.8,737.4h-6v3h6V737.4L791.8,737.4z M785.7,737.4L785.7,737.4l-0.1,3h0.1V737.4L785.7,737.4z M779.7,737.4
			L779.7,737.4l-0.1,3h0.1V737.4L779.7,737.4z M779.6,737.4h-6v3h6V737.4L779.6,737.4z M773.5,737.4L773.5,737.4l-0.1,3h0.1V737.4
			L773.5,737.4z M767.5,737.4L767.5,737.4l-0.1,3h0.1V737.4L767.5,737.4z M767.3,737.4h-6v3h6V737.4L767.3,737.4z M761.3,737.4
			L761.3,737.4l-0.1,3h0.1V737.4L761.3,737.4z M755.2,737.4L755.2,737.4l-0.1,3h0.1V737.4L755.2,737.4z M755.1,737.4h-6v3h6V737.4
			L755.1,737.4z M749.1,737.4L749.1,737.4l-0.1,3h0.1V737.4L749.1,737.4z M743,737.4L743,737.4l-0.1,3h0.1V737.4L743,737.4z
			 M742.9,737.4h-6v3h6V737.4L742.9,737.4z M736.8,737.4L736.8,737.4l-0.1,3h0.1V737.4L736.8,737.4z M730.8,737.4L730.8,737.4
			l-0.1,3h0.1V737.4L730.8,737.4z M730.7,737.4h-6v3h6V737.4L730.7,737.4z M724.6,737.4L724.6,737.4l-0.1,3h0.1V737.4L724.6,737.4z
			 M718.6,737.4L718.6,737.4l-0.1,3h0.1V737.4L718.6,737.4z M718.5,737.4h-6v3h6V737.4L718.5,737.4z M712.4,737.4L712.4,737.4
			l-0.1,3h0.1V737.4L712.4,737.4z M706.4,737.4L706.4,737.4l-0.1,3h0.1V737.4L706.4,737.4z M706.2,737.4h-6v3h6V737.4L706.2,737.4z
			 M700.2,737.4L700.2,737.4l-0.1,3h0.1V737.4L700.2,737.4z M694.1,737.4L694.1,737.4l-0.1,3h0.1V737.4L694.1,737.4z M694,737.4h-6
			v3h6V737.4L694,737.4z M688,737.4L688,737.4l-0.1,3h0.1V737.4L688,737.4z M681.9,737.4L681.9,737.4l-0.1,3h0.1V737.4L681.9,737.4z
			 M681.8,737.4h-6v3h6V737.4L681.8,737.4z M675.7,737.4L675.7,737.4l-0.1,3h0.1V737.4L675.7,737.4z M669.7,737.4L669.7,737.4
			l-0.1,3h0.1V737.4L669.7,737.4z M669.6,737.4h-6v3h6V737.4L669.6,737.4z M663.5,737.4L663.5,737.4l-0.1,3h0.1V737.4L663.5,737.4z
			 M657.5,737.4L657.5,737.4l-0.1,3h0.1V737.4L657.5,737.4z M657.4,737.4h-6v3h6V737.4L657.4,737.4z M651.3,737.4L651.3,737.4
			l-0.1,3h0.1V737.4L651.3,737.4z M645.3,737.4L645.3,737.4l-0.1,3h0.1V737.4L645.3,737.4z M645.1,737.4h-6v3h6V737.4L645.1,737.4z
			 M639.1,737.4L639.1,737.4l-0.1,3h0.1V737.4L639.1,737.4z M633,737.4L633,737.4l-0.1,3h0.1V737.4L633,737.4z M632.9,737.4h-6v3h6
			V737.4L632.9,737.4z M626.9,737.4L626.9,737.4l-0.1,3h0.1V737.4L626.9,737.4z M620.8,737.4L620.8,737.4l-0.1,3h0.1V737.4
			L620.8,737.4z M620.7,737.4h-6v3h6V737.4L620.7,737.4z M614.6,737.4L614.6,737.4l-0.1,3h0.1V737.4L614.6,737.4z M608.6,737.4
			L608.6,737.4l-0.1,3h0.1V737.4L608.6,737.4z M608.5,737.4h-6v3h6V737.4L608.5,737.4z M602.4,737.4L602.4,737.4l-0.1,3h0.1V737.4
			L602.4,737.4z M596.4,737.4L596.4,737.4l-0.1,3h0.1V737.4L596.4,737.4z M596.3,737.4h-6v3h6V737.4L596.3,737.4z M590.2,737.4
			L590.2,737.4l-0.1,3h0.1V737.4L590.2,737.4z M584.2,737.4L584.2,737.4l-0.1,3h0.1V737.4L584.2,737.4z M584,737.4h-6v3h6V737.4
			L584,737.4z M578,737.4L578,737.4l-0.1,3h0.1V737.4L578,737.4z M571.9,737.4L571.9,737.4l-0.1,3h0.1V737.4L571.9,737.4z
			 M571.8,737.4h-6v3h6V737.4L571.8,737.4z M565.8,737.4L565.8,737.4l-0.1,3h0.1V737.4L565.8,737.4z M559.7,737.4L559.7,737.4
			l-0.1,3h0.1V737.4L559.7,737.4z M559.6,737.4h-6v3h6V737.4L559.6,737.4z M553.5,737.4L553.5,737.4l-0.1,3h0.1V737.4L553.5,737.4z
			 M547.5,737.4L547.5,737.4l-0.1,3h0.1V737.4L547.5,737.4z M547.4,737.4h-6v3h6V737.4L547.4,737.4z M541.3,737.4L541.3,737.4
			l-0.1,3h0.1V737.4L541.3,737.4z M535.3,737.4L535.3,737.4l-0.1,3h0.1V737.4L535.3,737.4z M535.2,737.4h-6v3h6V737.4L535.2,737.4z
			 M529.1,737.4L529.1,737.4l-0.1,3h0.1V737.4L529.1,737.4z M523.1,737.4L523.1,737.4l-0.1,3h0.1V737.4L523.1,737.4z M522.9,737.4
			h-6v3h6V737.4L522.9,737.4z M516.9,737.4L516.9,737.4l-0.1,3h0.1V737.4L516.9,737.4z M510.8,737.4L510.8,737.4l-0.1,3h0.1V737.4
			L510.8,737.4z M510.7,737.4h-6v3h6V737.4L510.7,737.4z M504.7,737.4L504.7,737.4l-0.1,3h0.1V737.4L504.7,737.4z M498.6,737.4
			L498.6,737.4l-0.1,3h0.1V737.4L498.6,737.4z M498.5,737.4h-6v3h6V737.4L498.5,737.4z M492.4,737.4L492.4,737.4l-0.1,3h0.1V737.4
			L492.4,737.4z M486.4,737.4L486.4,737.4l-0.1,3h0.1V737.4L486.4,737.4z M486.3,737.4h-6v3h6V737.4L486.3,737.4z M480.2,737.4
			L480.2,737.4l-0.1,3h0.1V737.4L480.2,737.4z M474.2,737.4L474.2,737.4l-0.1,3h0.1V737.4L474.2,737.4z M474.1,737.4h-6v3h6V737.4
			L474.1,737.4z M468,737.4L468,737.4l-0.1,3h0.1V737.4L468,737.4z M462,737.4L462,737.4l-0.1,3h0.1V737.4L462,737.4z M461.8,737.4
			h-6v3h6V737.4L461.8,737.4z M455.8,737.4L455.8,737.4l-0.1,3h0.1V737.4L455.8,737.4z M449.7,737.4L449.7,737.4l-0.1,3h0.1V737.4
			L449.7,737.4z M449.6,737.4h-6v3h6V737.4L449.6,737.4z M443.6,737.4L443.6,737.4l-0.1,3h0.1V737.4L443.6,737.4z M437.5,737.4
			L437.5,737.4l-0.1,3h0.1V737.4L437.5,737.4z M437.4,737.4h-6v3h6V737.4L437.4,737.4z M431.3,737.4L431.3,737.4l-0.1,3h0.1V737.4
			L431.3,737.4z M425.3,737.4L425.3,737.4l-0.1,3h0.1V737.4L425.3,737.4z M425.2,737.4h-6v3h6V737.4L425.2,737.4z M419.1,737.4
			L419.1,737.4l-0.1,3h0.1V737.4L419.1,737.4z M413.1,737.4L413.1,737.4l-0.1,3h0.1V737.4L413.1,737.4z M413,737.4h-6v3h6V737.4
			L413,737.4z M406.9,737.4L406.9,737.4l-0.1,3h0.1V737.4L406.9,737.4z M400.9,737.4L400.9,737.4l-0.1,3h0.1V737.4L400.9,737.4z
			 M400.7,737.4h-6v3h6V737.4L400.7,737.4z M394.7,737.4L394.7,737.4l-0.1,3h0.1V737.4L394.7,737.4z M388.6,737.4L388.6,737.4
			l-0.1,3h0.1V737.4L388.6,737.4z M388.5,737.4h-6v3h6V737.4L388.5,737.4z M382.5,737.4L382.5,737.4l-0.1,3h0.1V737.4L382.5,737.4z
			 M376.4,737.4L376.4,737.4l-0.1,3h0.1V737.4L376.4,737.4z M376.3,737.4h-6v3h6V737.4L376.3,737.4z M370.2,737.4L370.2,737.4
			l-0.1,3h0.1V737.4L370.2,737.4z M364.2,737.4L364.2,737.4l-0.1,3h0.1V737.4L364.2,737.4z M364.1,737.4h-6v3h6V737.4L364.1,737.4z
			 M358,737.4L358,737.4l-0.1,3h0.1V737.4L358,737.4z M352,737.4L352,737.4l-0.1,3h0.1V737.4L352,737.4z M351.9,737.4h-6v3h6V737.4
			L351.9,737.4z M345.8,737.4L345.8,737.4l-0.1,3h0.1V737.4L345.8,737.4z M339.8,737.4L339.8,737.4l-0.1,3h0.1V737.4L339.8,737.4z
			 M339.6,737.4h-6v3h6V737.4L339.6,737.4z M333.6,737.4L333.6,737.4l-0.1,3h0.1V737.4L333.6,737.4z M327.5,737.4L327.5,737.4
			l-0.1,3h0.1V737.4L327.5,737.4z M327.4,737.4h-6v3h6V737.4L327.4,737.4z M321.4,737.4L321.4,737.4l-0.1,3h0.1V737.4L321.4,737.4z
			 M315.3,737.4L315.3,737.4l-0.1,3h0.1V737.4L315.3,737.4z M315.2,737.4h-6v3h6V737.4L315.2,737.4z M309.1,737.4L309.1,737.4
			l-0.1,3h0.1V737.4L309.1,737.4z M303.1,737.4L303.1,737.4l-0.1,3h0.1V737.4L303.1,737.4z M303,737.4h-6v3h6V737.4L303,737.4z
			 M296.9,737.4L296.9,737.4l-0.1,3h0.1V737.4L296.9,737.4z M290.9,737.4L290.9,737.4l-0.1,3h0.1V737.4L290.9,737.4z M290.8,737.4
			h-6v3h6V737.4L290.8,737.4z M284.7,737.4L284.7,737.4l-0.1,3h0.1V737.4L284.7,737.4z M278.7,737.4L278.7,737.4l-0.1,3h0.1V737.4
			L278.7,737.4z M278.5,737.4h-6v3h6V737.4L278.5,737.4z M272.5,737.4L272.5,737.4l-0.1,3h0.1V737.4L272.5,737.4z M266.4,737.4
			L266.4,737.4l-0.1,3h0.1V737.4L266.4,737.4z M266.3,737.4h-6v3h6V737.4L266.3,737.4z M260.3,737.4L260.3,737.4l-0.1,3h0.1V737.4
			L260.3,737.4z M254.2,737.4L254.2,737.4l-0.1,3h0.1V737.4L254.2,737.4z M254.1,737.4h-6v3h6V737.4L254.1,737.4z M248,737.4
			L248,737.4l-0.1,3h0.1V737.4L248,737.4z M242,737.4L242,737.4l-0.1,3h0.1V737.4L242,737.4z M241.9,737.4h-6v3h6V737.4L241.9,737.4
			z M235.8,737.4L235.8,737.4l-0.1,3h0.1V737.4L235.8,737.4z M229.8,737.4L229.8,737.4l-0.1,3h0.1V737.4L229.8,737.4z M229.7,737.4
			h-6v3h6V737.4L229.7,737.4z M223.6,737.4L223.6,737.4l-0.1,3h0.1V737.4L223.6,737.4z M217.6,737.4L217.6,737.4l-0.1,3h0.1V737.4
			L217.6,737.4z M217.4,737.4h-6v3h6V737.4L217.4,737.4z M211.4,737.4L211.4,737.4l-0.1,3h0.1V737.4L211.4,737.4z M205.3,737.4
			L205.3,737.4l-0.1,3h0.1V737.4L205.3,737.4z M205.2,737.4h-6v3h6V737.4L205.2,737.4z M199.2,737.4L199.2,737.4l-0.1,3h0.1V737.4
			L199.2,737.4z M193.1,737.4L193.1,737.4l-0.1,3h0.1V737.4L193.1,737.4z M193,737.4h-6v3h6V737.4L193,737.4z M186.9,737.4
			L186.9,737.4l-0.1,3h0.1V737.4L186.9,737.4z M180.9,737.4L180.9,737.4l-0.1,3h0.1V737.4L180.9,737.4z M180.8,737.4h-6v3h6V737.4
			L180.8,737.4z M174.7,737.4L174.7,737.4l-0.1,3h0.1V737.4L174.7,737.4z M168.7,737.4L168.7,737.4l-0.1,3h0.1V737.4L168.7,737.4z
			 M168.6,737.4h-6v3h6V737.4L168.6,737.4z M162.5,737.4L162.5,737.4l-0.1,3h0.1V737.4L162.5,737.4z M157.6,737.4h-3v3l0,0
			c0,0.8,0,1.4,0,1.4h3V737.4L157.6,737.4z M157.6,741.8h-3v0.1L157.6,741.8L157.6,741.8L157.6,741.8z M157.6,747.9h-3v0.1
			L157.6,747.9L157.6,747.9L157.6,747.9z M157.6,748h-3v6h3V748L157.6,748z M157.6,754h-3v0.1L157.6,754L157.6,754L157.6,754z
			 M157.6,760.1h-3v0.1L157.6,760.1L157.6,760.1L157.6,760.1z M157.6,760.2h-3v6h3V760.2L157.6,760.2z M157.6,766.3h-3v0.1
			L157.6,766.3L157.6,766.3L157.6,766.3z M157.6,772.3h-3v0.1L157.6,772.3L157.6,772.3L157.6,772.3z M157.6,772.4h-3v6h3V772.4
			L157.6,772.4z M157.6,778.5h-3v0.1L157.6,778.5L157.6,778.5L157.6,778.5z M157.6,784.5h-3v0.1L157.6,784.5L157.6,784.5
			L157.6,784.5z M157.6,784.7h-3v6h3V784.7L157.6,784.7z M157.6,790.7h-3v0.1L157.6,790.7L157.6,790.7L157.6,790.7z M157.6,796.8h-3
			v0.1L157.6,796.8L157.6,796.8L157.6,796.8z M157.6,796.9h-3v6h3V796.9L157.6,796.9z M157.6,802.9h-3v0.1L157.6,802.9L157.6,802.9
			L157.6,802.9z M157.6,809h-3v0.1L157.6,809L157.6,809L157.6,809z M157.6,809.1h-3v6h3V809.1L157.6,809.1z M157.6,815.2h-3v0.1
			L157.6,815.2L157.6,815.2L157.6,815.2z M157.6,821.2h-3v0.1L157.6,821.2L157.6,821.2L157.6,821.2z M157.6,821.3h-3v6h3V821.3
			L157.6,821.3z M157.6,827.4h-3v0.1L157.6,827.4L157.6,827.4L157.6,827.4z M157.6,833.4h-3v0.1L157.6,833.4L157.6,833.4
			L157.6,833.4z M157.6,833.5h-3v6h3V833.5L157.6,833.5z M157.6,839.6h-3v0.1L157.6,839.6L157.6,839.6L157.6,839.6z M157.6,845.6h-3
			v0.1L157.6,845.6L157.6,845.6L157.6,845.6z M157.6,845.8h-3v6h3V845.8L157.6,845.8z M157.6,851.8h-3v0.1L157.6,851.8L157.6,851.8
			L157.6,851.8z M157.6,857.9h-3v0.1L157.6,857.9L157.6,857.9L157.6,857.9z M157.6,858h-3v6h3V858L157.6,858z M157.6,864h-3v0.1
			L157.6,864L157.6,864L157.6,864z M157.6,870.1h-3v0.1L157.6,870.1L157.6,870.1L157.6,870.1z M157.6,870.2h-3v6h3V870.2
			L157.6,870.2z M157.6,876.2h-3v0.1L157.6,876.2L157.6,876.2L157.6,876.2z M157.6,882.3h-3v0.1L157.6,882.3L157.6,882.3
			L157.6,882.3z M157.6,882.4h-3v6h3V882.4L157.6,882.4z M157.6,888.5h-3v0.1L157.6,888.5L157.6,888.5L157.6,888.5z M157.6,894.5h-3
			v0.1L157.6,894.5L157.6,894.5L157.6,894.5z M157.6,894.6h-3v6h3V894.6L157.6,894.6z M157.6,900.7h-3v0.1L157.6,900.7L157.6,900.7
			L157.6,900.7z M157.6,906.7h-3v0.1L157.6,906.7L157.6,906.7L157.6,906.7z M157.6,906.9h-3v6h3V906.9L157.6,906.9z M157.6,912.9h-3
			v0.1L157.6,912.9L157.6,912.9L157.6,912.9z M157.6,919h-3v0.1L157.6,919L157.6,919L157.6,919z M157.6,919.1h-3v6h3V919.1
			L157.6,919.1z M157.6,925.1h-3v0.1L157.6,925.1L157.6,925.1L157.6,925.1z M157.6,931.2h-3v0.1L157.6,931.2L157.6,931.2
			L157.6,931.2z M157.6,931.3h-3v6h3V931.3L157.6,931.3z M157.6,937.3h-3v0.1L157.6,937.3L157.6,937.3L157.6,937.3z M157.6,943.4h-3
			v0.1L157.6,943.4L157.6,943.4L157.6,943.4z M157.6,943.5h-3v6h3V943.5L157.6,943.5z M157.6,949.6h-3v0.1L157.6,949.6L157.6,949.6
			L157.6,949.6z M157.6,955.6h-3v0.1L157.6,955.6L157.6,955.6L157.6,955.6z M157.6,955.7h-3v6h3V955.7L157.6,955.7z M157.6,961.8h-3
			v0.1L157.6,961.8L157.6,961.8L157.6,961.8z M157.6,967.8h-3v0.1L157.6,967.8L157.6,967.8L157.6,967.8z M157.6,968h-3v6h3V968
			L157.6,968z M157.6,974h-3v0.1L157.6,974L157.6,974L157.6,974z M157.6,980.1h-3v0.1L157.6,980.1L157.6,980.1L157.6,980.1z
			 M157.6,980.2h-3v6h3V980.2L157.6,980.2z M157.6,986.2h-3v0.1L157.6,986.2L157.6,986.2L157.6,986.2z M157.6,992.3h-3v0.1
			L157.6,992.3L157.6,992.3L157.6,992.3z M157.6,992.4h-3v6h3V992.4L157.6,992.4z M157.6,998.4h-3v0.1L157.6,998.4L157.6,998.4
			L157.6,998.4z M157.6,1004.5h-3v0.1L157.6,1004.5L157.6,1004.5L157.6,1004.5z M157.6,1004.6h-3v3.4h3l0,0l0,0l0,0V1004.6
			L157.6,1004.6z M163.5,1005L163.5,1005l-0.1,3h0.1V1005L163.5,1005z M169.5,1005h-6v3h6V1005L169.5,1005z M169.6,1005L169.6,1005
			l-0.1,3h0.1V1005L169.6,1005z M175.7,1005L175.7,1005l-0.1,3h0.1V1005L175.7,1005z M181.7,1005h-6v3h6V1005L181.7,1005z
			 M181.8,1005L181.8,1005l-0.1,3h0.1V1005L181.8,1005z M187.9,1005L187.9,1005l-0.1,3h0.1V1005L187.9,1005z M193.9,1005h-6v3h6
			V1005L193.9,1005z M194.1,1005L194.1,1005l-0.1,3h0.1V1005L194.1,1005z M200.1,1005L200.1,1005l-0.1,3h0.1V1005L200.1,1005z
			 M206.2,1005h-6v3h6V1005L206.2,1005z M206.3,1005L206.3,1005l-0.1,3h0.1V1005L206.3,1005z M212.3,1005L212.3,1005l-0.1,3h0.1
			V1005L212.3,1005z M218.4,1005h-6v3h6V1005L218.4,1005z M218.5,1005L218.5,1005l-0.1,3h0.1V1005L218.5,1005z M224.6,1005
			L224.6,1005l-0.1,3h0.1V1005L224.6,1005z M230.6,1005h-6v3h6V1005L230.6,1005z M230.7,1005L230.7,1005l-0.1,3h0.1V1005L230.7,1005
			z M236.8,1005L236.8,1005l-0.1,3h0.1V1005L236.8,1005z M242.8,1005h-6v3h6V1005L242.8,1005z M242.9,1005L242.9,1005l-0.1,3h0.1
			V1005L242.9,1005z M249,1005L249,1005l-0.1,3h0.1V1005L249,1005z M255,1005h-6v3h6V1005L255,1005z M255.2,1005L255.2,1005l-0.1,3
			h0.1V1005L255.2,1005z M261.2,1005L261.2,1005l-0.1,3h0.1V1005L261.2,1005z M267.3,1005h-6v3h6V1005L267.3,1005z M267.4,1005
			L267.4,1005l-0.1,3h0.1V1005L267.4,1005z M273.4,1005L273.4,1005l-0.1,3h0.1V1005L273.4,1005z M279.5,1005h-6v3h6V1005L279.5,1005
			z M279.6,1005L279.6,1005l-0.1,3h0.1V1005L279.6,1005z M285.6,1005L285.6,1005l-0.1,3h0.1V1005L285.6,1005z M291.7,1005h-6v3h6
			V1005L291.7,1005z M291.8,1005L291.8,1005l-0.1,3h0.1V1005L291.8,1005z M297.9,1005L297.9,1005l-0.1,3h0.1V1005L297.9,1005z
			 M303.9,1005h-6v3h6V1005L303.9,1005z M304,1005L304,1005l-0.1,3h0.1V1005L304,1005z M310.1,1005L310.1,1005l-0.1,3h0.1V1005
			L310.1,1005z M316.1,1005h-6v3h6V1005L316.1,1005z M316.3,1005L316.3,1005l-0.1,3h0.1V1005L316.3,1005z M322.3,1005L322.3,1005
			l-0.1,3h0.1V1005L322.3,1005z M328.4,1005h-6v3h6V1005L328.4,1005z M328.5,1005L328.5,1005l-0.1,3h0.1V1005L328.5,1005z
			 M334.5,1005L334.5,1005l-0.1,3h0.1V1005L334.5,1005z M340.6,1005h-6v3h6V1005L340.6,1005z M340.7,1005L340.7,1005l-0.1,3h0.1
			V1005L340.7,1005z M346.7,1005L346.7,1005l-0.1,3h0.1V1005L346.7,1005z M352.8,1005h-6v3h6V1005L352.8,1005z M352.9,1005
			L352.9,1005l-0.1,3h0.1V1005L352.9,1005z M359,1005L359,1005l-0.1,3h0.1V1005L359,1005z M365,1005h-6v3h6V1005L365,1005z
			 M365.1,1005L365.1,1005l-0.1,3h0.1V1005L365.1,1005z M371.2,1005L371.2,1005l-0.1,3h0.1V1005L371.2,1005z M377.2,1005h-6v3h6
			V1005L377.2,1005z M377.4,1005L377.4,1005l-0.1,3h0.1V1005L377.4,1005z M383.4,1005L383.4,1005l-0.1,3h0.1V1005L383.4,1005z
			 M389.5,1005h-6v3h6V1005L389.5,1005z M389.6,1005L389.6,1005l-0.1,3h0.1V1005L389.6,1005z M395.6,1005L395.6,1005l-0.1,3h0.1
			V1005L395.6,1005z M401.7,1005h-6v3h6V1005L401.7,1005z M401.8,1005L401.8,1005l-0.1,3h0.1V1005L401.8,1005z M407.9,1005
			L407.9,1005l-0.1,3h0.1V1005L407.9,1005z M413.9,1005h-6v3h6V1005L413.9,1005z M414,1005L414,1005l-0.1,3h0.1V1005L414,1005z
			 M420.1,1005L420.1,1005l-0.1,3h0.1V1005L420.1,1005z M426.1,1005h-6v3h6V1005L426.1,1005z M426.2,1005L426.2,1005l-0.1,3h0.1
			V1005L426.2,1005z M432.3,1005L432.3,1005l-0.1,3h0.1V1005L432.3,1005z M438.3,1005h-6v3h6V1005L438.3,1005z M438.5,1005
			L438.5,1005l-0.1,3h0.1V1005L438.5,1005z M444.5,1005L444.5,1005l-0.1,3h0.1V1005L444.5,1005z M450.6,1005h-6v3h6V1005L450.6,1005
			z M450.7,1005L450.7,1005l-0.1,3h0.1V1005L450.7,1005z M456.7,1005L456.7,1005l-0.1,3h0.1V1005L456.7,1005z M462.8,1005h-6v3h6
			V1005L462.8,1005z M462.9,1005L462.9,1005l-0.1,3h0.1V1005L462.9,1005z M469,1005L469,1005l-0.1,3h0.1V1005L469,1005z M475,1005
			h-6v3h6V1005L475,1005z M475.1,1005L475.1,1005l-0.1,3h0.1V1005L475.1,1005z M481.2,1005L481.2,1005l-0.1,3h0.1V1005L481.2,1005z
			 M487.2,1005h-6v3h6V1005L487.2,1005z M487.3,1005L487.3,1005l-0.1,3h0.1V1005L487.3,1005z M493.4,1005L493.4,1005l-0.1,3h0.1
			V1005L493.4,1005z M499.4,1005h-6v3h6V1005L499.4,1005z M499.6,1005L499.6,1005l-0.1,3h0.1V1005L499.6,1005z M505.6,1005
			L505.6,1005l-0.1,3h0.1V1005L505.6,1005z M511.7,1005h-6v3h6V1005L511.7,1005z M511.8,1005L511.8,1005l-0.1,3h0.1V1005L511.8,1005
			z M517.8,1005L517.8,1005l-0.1,3h0.1V1005L517.8,1005z M523.9,1005h-6v3h6V1005L523.9,1005z M524,1005L524,1005l-0.1,3h0.1V1005
			L524,1005z M530.1,1005L530.1,1005l-0.1,3h0.1V1005L530.1,1005z M536.1,1005h-6v3h6V1005L536.1,1005z M536.2,1005L536.2,1005
			l-0.1,3h0.1V1005L536.2,1005z M542.3,1005L542.3,1005l-0.1,3h0.1V1005L542.3,1005z M548.3,1005h-6v3h6V1005L548.3,1005z
			 M548.4,1005L548.4,1005l-0.1,3h0.1V1005L548.4,1005z M554.5,1005L554.5,1005l-0.1,3h0.1V1005L554.5,1005z M560.5,1005h-6v3h6
			V1005L560.5,1005z M560.7,1005L560.7,1005l-0.1,3h0.1V1005L560.7,1005z M566.7,1005L566.7,1005l-0.1,3h0.1V1005L566.7,1005z
			 M572.8,1005h-6v3h6V1005L572.8,1005z M572.9,1005L572.9,1005l-0.1,3h0.1V1005L572.9,1005z M578.9,1005L578.9,1005l-0.1,3h0.1
			V1005L578.9,1005z M585,1005h-6v3h6V1005L585,1005z M585.1,1005L585.1,1005l-0.1,3h0.1V1005L585.1,1005z M591.1,1005L591.1,1005
			l-0.1,3h0.1V1005L591.1,1005z M597.2,1005h-6v3h6V1005L597.2,1005z M597.3,1005L597.3,1005l-0.1,3h0.1V1005L597.3,1005z
			 M603.4,1005L603.4,1005l-0.1,3h0.1V1005L603.4,1005z M609.4,1005h-6v3h6V1005L609.4,1005z M609.5,1005L609.5,1005l-0.1,3h0.1
			V1005L609.5,1005z M615.6,1005L615.6,1005l-0.1,3h0.1V1005L615.6,1005z M621.6,1005h-6v3h6V1005L621.6,1005z M621.8,1005
			L621.8,1005l-0.1,3h0.1V1005L621.8,1005z M627.8,1005L627.8,1005l-0.1,3h0.1V1005L627.8,1005z M633.9,1005h-6v3h6V1005L633.9,1005
			z M634,1005L634,1005l-0.1,3h0.1V1005L634,1005z M640,1005L640,1005l-0.1,3h0.1V1005L640,1005z M646.1,1005h-6v3h6V1005
			L646.1,1005z M646.2,1005L646.2,1005l-0.1,3h0.1V1005L646.2,1005z M652.2,1005L652.2,1005l-0.1,3h0.1V1005L652.2,1005z
			 M658.3,1005h-6v3h6V1005L658.3,1005z M658.4,1005L658.4,1005l-0.1,3h0.1V1005L658.4,1005z M664.5,1005L664.5,1005l-0.1,3h0.1
			V1005L664.5,1005z M670.5,1005h-6v3h6V1005L670.5,1005z M670.6,1005L670.6,1005l-0.1,3h0.1V1005L670.6,1005z M676.7,1005
			L676.7,1005l-0.1,3h0.1V1005L676.7,1005z M682.7,1005h-6v3h6V1005L682.7,1005z M682.9,1005L682.9,1005l-0.1,3h0.1V1005L682.9,1005
			z M688.9,1005L688.9,1005l-0.1,3h0.1V1005L688.9,1005z M695,1005h-6v3h6V1005L695,1005z M695.1,1005L695.1,1005l-0.1,3h0.1V1005
			L695.1,1005z M701.1,1005L701.1,1005l-0.1,3h0.1V1005L701.1,1005z M707.2,1005h-6v3h6V1005L707.2,1005z M707.3,1005L707.3,1005
			l-0.1,3h0.1V1005L707.3,1005z M713.4,1005L713.4,1005l-0.1,3h0.1V1005L713.4,1005z M719.4,1005h-6v3h6V1005L719.4,1005z
			 M719.5,1005L719.5,1005l-0.1,3h0.1V1005L719.5,1005z M725.6,1005L725.6,1005l-0.1,3h0.1V1005L725.6,1005z M731.6,1005h-6v3h6
			V1005L731.6,1005z M731.7,1005L731.7,1005l-0.1,3h0.1V1005L731.7,1005z M737.8,1005L737.8,1005l-0.1,3h0.1V1005L737.8,1005z
			 M743.8,1005h-6v3h6V1005L743.8,1005z M744,1005L744,1005l-0.1,3h0.1V1005L744,1005z M750,1005L750,1005l-0.1,3h0.1V1005L750,1005
			z M756.1,1005h-6v3h6V1005L756.1,1005z M756.2,1005L756.2,1005l-0.1,3h0.1V1005L756.2,1005z M762.2,1005L762.2,1005l-0.1,3h0.1
			V1005L762.2,1005z M768.3,1005h-6v3h6V1005L768.3,1005z M768.4,1005L768.4,1005l-0.1,3h0.1V1005L768.4,1005z M774.5,1005
			L774.5,1005l-0.1,3h0.1V1005L774.5,1005z M780.5,1005h-6v3h6V1005L780.5,1005z M780.6,1005L780.6,1005l-0.1,3h0.1V1005L780.6,1005
			z M786.7,1005L786.7,1005l-0.1,3h0.1V1005L786.7,1005z M792.7,1005h-6v3h6V1005L792.7,1005z M792.8,1005L792.8,1005l-0.1,3h0.1
			V1005L792.8,1005z M798.9,1005L798.9,1005l-0.1,3h0.1V1005L798.9,1005z M804.9,1005h-6v3h6V1005L804.9,1005z M805.1,1005
			L805.1,1005l-0.1,3h0.1V1005L805.1,1005z M811.1,1005L811.1,1005l-0.1,3h0.1V1005L811.1,1005z M817.2,1005h-6v3h6V1005L817.2,1005
			z M817.3,1005L817.3,1005l-0.1,3h0.1V1005L817.3,1005z M823.3,1005L823.3,1005l-0.1,3h0.1V1005L823.3,1005z M829.4,1005h-6v3h6
			V1005L829.4,1005z M829.5,1005L829.5,1005l-0.1,3h0.1V1005L829.5,1005z M835.6,1005L835.6,1005l-0.1,3h0.1V1005L835.6,1005z
			 M840.7,1005h-5.1v3h5.1V1005L840.7,1005z M840.7,1000.9h-3v0.1L840.7,1000.9L840.7,1000.9L840.7,1000.9z M840.7,994.8h-3v6h3
			V994.8L840.7,994.8z M840.7,994.7h-3v0.1L840.7,994.7L840.7,994.7L840.7,994.7z M840.7,988.7h-3v0.1L840.7,988.7L840.7,988.7
			L840.7,988.7z M840.7,982.6h-3v6h3V982.6L840.7,982.6z M840.7,982.5h-3v0.1L840.7,982.5L840.7,982.5L840.7,982.5z M840.7,976.5h-3
			v0.1L840.7,976.5L840.7,976.5L840.7,976.5z M840.7,970.4h-3v6h3V970.4L840.7,970.4z M840.7,970.3h-3v0.1L840.7,970.3L840.7,970.3
			L840.7,970.3z M840.7,964.2h-3v0.1L840.7,964.2L840.7,964.2L840.7,964.2z M840.7,958.2h-3v6h3V958.2L840.7,958.2z M840.7,958.1h-3
			v0.1L840.7,958.1L840.7,958.1L840.7,958.1z M840.7,952h-3v0.1L840.7,952L840.7,952L840.7,952z M840.7,946h-3v6h3V946L840.7,946z
			 M840.7,945.8h-3v0.1L840.7,945.8L840.7,945.8L840.7,945.8z M840.7,939.8h-3v0.1L840.7,939.8L840.7,939.8L840.7,939.8z
			 M840.7,933.7h-3v6h3V933.7L840.7,933.7z M840.7,933.6h-3v0.1L840.7,933.6L840.7,933.6L840.7,933.6z M840.7,927.6h-3v0.1
			L840.7,927.6L840.7,927.6L840.7,927.6z M840.7,921.5h-3v6h3V921.5L840.7,921.5z M840.7,921.4h-3v0.1L840.7,921.4L840.7,921.4
			L840.7,921.4z M840.7,915.4h-3v0.1L840.7,915.4L840.7,915.4L840.7,915.4z M840.7,909.3h-3v6h3V909.3L840.7,909.3z M840.7,909.2h-3
			v0.1L840.7,909.2L840.7,909.2L840.7,909.2z M840.7,903.1h-3v0.1L840.7,903.1L840.7,903.1L840.7,903.1z M840.7,897.1h-3v6h3V897.1
			L840.7,897.1z M840.7,897h-3v0.1L840.7,897L840.7,897L840.7,897z M840.7,890.9h-3v0.1L840.7,890.9L840.7,890.9L840.7,890.9z
			 M840.7,884.9h-3v6h3V884.9L840.7,884.9z M840.7,884.7h-3v0.1L840.7,884.7L840.7,884.7L840.7,884.7z M840.7,878.7h-3v0.1
			L840.7,878.7L840.7,878.7L840.7,878.7z M840.7,872.6h-3v6h3V872.6L840.7,872.6z M840.7,872.5h-3v0.1L840.7,872.5L840.7,872.5
			L840.7,872.5z M840.7,866.5h-3v0.1L840.7,866.5L840.7,866.5L840.7,866.5z M840.7,860.4h-3v6h3V860.4L840.7,860.4z M840.7,860.3h-3
			v0.1L840.7,860.3L840.7,860.3L840.7,860.3z M840.7,854.3h-3v0.1L840.7,854.3L840.7,854.3L840.7,854.3z M840.7,848.2h-3v6h3V848.2
			L840.7,848.2z M840.7,848.1h-3v0.1L840.7,848.1L840.7,848.1L840.7,848.1z M840.7,842h-3v0.1L840.7,842L840.7,842L840.7,842z
			 M840.7,836h-3v6h3V836L840.7,836z M840.7,835.9h-3v0.1L840.7,835.9L840.7,835.9L840.7,835.9z M840.7,829.8h-3v0.1L840.7,829.8
			L840.7,829.8L840.7,829.8z M840.7,823.8h-3v6h3V823.8L840.7,823.8z M840.7,823.6h-3v0.1L840.7,823.6L840.7,823.6L840.7,823.6z
			 M840.7,817.6h-3v0.1L840.7,817.6L840.7,817.6L840.7,817.6z M840.7,811.5h-3v6h3V811.5L840.7,811.5z M840.7,811.4h-3v0.1
			L840.7,811.4L840.7,811.4L840.7,811.4z M840.7,805.4h-3v0.1L840.7,805.4L840.7,805.4L840.7,805.4z M840.7,799.3h-3v6h3V799.3
			L840.7,799.3z M840.7,799.2h-3v0.1L840.7,799.2L840.7,799.2L840.7,799.2z M840.7,793.2h-3v0.1L840.7,793.2L840.7,793.2
			L840.7,793.2z M840.7,787.1h-3v6h3V787.1L840.7,787.1z M840.7,787h-3v0.1L840.7,787L840.7,787L840.7,787z M840.7,780.9h-3v0.1
			L840.7,780.9L840.7,780.9L840.7,780.9z M840.7,774.9h-3v6h3V774.9L840.7,774.9z M840.7,774.8h-3v0.1L840.7,774.8L840.7,774.8
			L840.7,774.8z M840.7,768.7h-3v0.1L840.7,768.7L840.7,768.7L840.7,768.7z M840.7,762.7h-3v6h3V762.7L840.7,762.7z M840.7,762.5h-3
			v0.1L840.7,762.5L840.7,762.5L840.7,762.5z M840.7,756.5h-3v0.1L840.7,756.5L840.7,756.5L840.7,756.5z M840.7,750.4h-3v6h3V750.4
			L840.7,750.4z M840.7,750.3h-3v0.1L840.7,750.3L840.7,750.3L840.7,750.3z M840.7,744.3h-3v0.1L840.7,744.3L840.7,744.3
			L840.7,744.3z"/>
	</g>
	<g>
		<g>
			<g>
				<path class="st2" d="M750.3,934.3h-76.8c-2.8,0-5.2-2.3-5.2-5.2V817.3c0-2.8,2.3-5.2,5.2-5.2h76.8c2.8,0,5.2,2.3,5.2,5.2v111.8
					C755.5,932,753.2,934.3,750.3,934.3z"/>
				<path class="st1" d="M750.3,936h-76.8c-3.8,0-6.9-3.1-6.9-6.9V817.3c0-3.8,3.1-6.9,6.9-6.9h76.8c3.8,0,6.9,3.1,6.9,6.9v111.8
					C757.2,932.9,754.1,936,750.3,936z M673.5,813.9c-1.9,0-3.4,1.5-3.4,3.4v111.8c0,1.9,1.5,3.4,3.4,3.4h76.8
					c1.9,0,3.4-1.5,3.4-3.4V817.3c0-1.9-1.5-3.4-3.4-3.4H673.5z"/>
			</g>
			<g>
				<circle class="st3" cx="711.9" cy="922.5" r="6.9"/>
				<path class="st1" d="M711.9,931.1c-4.8,0-8.7-3.9-8.7-8.7s3.9-8.7,8.7-8.7s8.7,3.9,8.7,8.7C720.6,927.2,716.7,931.1,711.9,931.1
					z M711.9,917.3c-2.9,0-5.2,2.3-5.2,5.2s2.3,5.2,5.2,5.2c2.9,0,5.2-2.3,5.2-5.2S714.8,917.3,711.9,917.3z"/>
			</g>
			<g>
				<path class="st0" d="M744.3,906.4h-65.4c-0.9,0-1.7-0.8-1.7-1.7v-74.9c0-0.9,0.8-1.7,1.7-1.7h65.4c0.9,0,1.7,0.8,1.7,1.7v74.9
					C746,905.6,745.2,906.4,744.3,906.4z"/>
				<path class="st1" d="M744.3,908.1h-65.4c-1.9,0-3.4-1.5-3.4-3.4v-74.9c0-1.9,1.5-3.4,3.4-3.4h65.4c1.9,0,3.4,1.5,3.4,3.4v74.9
					C747.7,906.5,746.2,908.1,744.3,908.1z M744.3,904.7v1.7V904.7L744.3,904.7L744.3,904.7z M678.9,829.7v74.9h65.4l0-74.9H678.9z"
					/>
			</g>
			<rect x="700.4" y="819" class="st1" width="20.1" height="3.4"/>
			<path class="st1" d="M711.6,882.6c-0.6,0-1.1-0.2-1.4-0.6l-11.8-11.4c-0.1-0.1-0.3-0.3-0.5-0.5c-0.2-0.2-0.6-0.7-1.1-1.3
				c-0.5-0.7-1-1.3-1.4-1.9c-0.4-0.7-0.8-1.5-1.1-2.5c-0.3-1-0.5-2-0.5-2.9c0-3,0.9-5.4,2.7-7.2c1.8-1.7,4.2-2.6,7.3-2.6
				c0.9,0,1.8,0.2,2.7,0.5c0.9,0.3,1.7,0.7,2.5,1.2c0.7,0.5,1.4,0.9,1.9,1.4c0.3,0.2,0.6,0.5,0.9,0.8c0.3-0.3,0.6-0.5,0.9-0.8
				c0.5-0.4,1.2-0.9,1.9-1.3c0.8-0.5,1.6-0.9,2.5-1.2c0.9-0.3,1.8-0.5,2.7-0.5c3.1,0,5.5,0.9,7.3,2.6c1.8,1.7,2.7,4.1,2.7,7.2
				s-1.5,6.1-4.6,9.2L713,882C712.6,882.4,712.1,882.6,711.6,882.6z M703.6,855.9c-0.6,0-1.2,0-1.7,0.1c-0.5,0.1-1,0.3-1.6,0.5
				c-0.5,0.2-0.9,0.6-1.3,0.9c-0.3,0.4-0.6,0.9-0.9,1.6c-0.2,0.7-0.4,1.5-0.4,2.4c0,1.9,1.1,3.9,3.3,6.1l10.4,10.1l10.4-10
				c2.2-2.2,3.3-4.3,3.3-6.1c0-0.9-0.1-1.7-0.4-2.4c-0.2-0.7-0.5-1.2-0.9-1.6c-0.3-0.4-0.8-0.7-1.3-0.9c-0.5-0.3-1.1-0.4-1.6-0.5
				c-0.5-0.1-1.1-0.1-1.7-0.1c-0.5,0-1.1,0.1-1.8,0.4c-0.7,0.3-1.3,0.7-1.9,1.1c-0.6,0.5-1.1,0.9-1.6,1.3c-0.4,0.4-0.8,0.8-1.1,1.1
				c-0.4,0.5-0.9,0.7-1.6,0.7c-0.7,0-1.2-0.3-1.6-0.7c-0.3-0.3-0.6-0.7-1.1-1.1c-0.4-0.4-1-0.8-1.6-1.3c-0.6-0.4-1.2-0.8-1.9-1.1
				C704.8,856,704.2,855.9,703.6,855.9z"/>
			<path class="st1" d="M728.6,861.5c0,2.8-1.4,5.6-4.4,8.5l-11.8,11.4c-0.2,0.2-0.5,0.3-0.8,0.3c-0.3,0-0.6-0.1-0.8-0.3L698.9,870
				c-0.1-0.1-0.3-0.3-0.5-0.5c-0.2-0.2-0.6-0.6-1.1-1.2c-0.5-0.6-0.9-1.2-1.3-1.9c-0.4-0.6-0.7-1.4-1-2.3c-0.3-0.9-0.4-1.8-0.4-2.6
				c0-2.8,0.8-5,2.4-6.5c1.6-1.6,3.8-2.4,6.7-2.4c0.8,0,1.6,0.1,2.4,0.4c0.8,0.3,1.6,0.6,2.3,1.1c0.7,0.5,1.3,0.9,1.8,1.3
				c0.5,0.4,1,0.8,1.4,1.3c0.5-0.5,0.9-0.9,1.4-1.3c0.5-0.4,1.1-0.8,1.8-1.3c0.7-0.5,1.5-0.8,2.3-1.1c0.8-0.3,1.6-0.4,2.4-0.4
				c2.8,0,5.1,0.8,6.7,2.4C727.8,856.5,728.6,858.7,728.6,861.5z M722.6,868.2c2.4-2.4,3.6-4.6,3.6-6.8c0-1-0.1-1.9-0.4-2.7
				c-0.3-0.8-0.6-1.4-1-1.9c-0.4-0.5-0.9-0.8-1.5-1.1c-0.6-0.3-1.2-0.5-1.8-0.6c-0.6-0.1-1.2-0.2-1.9-0.2s-1.4,0.2-2.1,0.5
				c-0.8,0.3-1.5,0.7-2.1,1.2c-0.6,0.5-1.2,0.9-1.6,1.4c-0.5,0.4-0.8,0.8-1.1,1.2c-0.2,0.3-0.5,0.4-0.9,0.4c-0.4,0-0.7-0.1-0.9-0.4
				c-0.3-0.4-0.7-0.7-1.1-1.2c-0.5-0.4-1-0.9-1.6-1.4c-0.6-0.5-1.3-0.9-2.1-1.2c-0.8-0.3-1.5-0.5-2.1-0.5c-0.7,0-1.3,0-1.9,0.2
				c-0.6,0.1-1.2,0.3-1.8,0.6c-0.6,0.3-1.1,0.7-1.5,1.1c-0.4,0.5-0.8,1.1-1,1.9c-0.3,0.8-0.4,1.7-0.4,2.7c0,2.1,1.2,4.4,3.6,6.7
				l11,10.6L722.6,868.2L722.6,868.2z"/>
		</g>
		<g>
			<g>
				<g>
					<g>
						<path class="st2" d="M408.5,919.6v7c0,3.2,2.9,7.5,6.1,7.5h167.9c3.2,0,4.4-4.3,4.4-7.5v-7H408.5z"/>
						<path class="st1" d="M582.5,936H414.6c-4.2,0-7.9-5.1-7.9-9.3v-8.9h182v8.9C588.6,931.2,586.7,936,582.5,936z M410.3,921.4
							v5.2c0,2.3,2.2,5.7,4.2,5.7h167.9c1.7,0,2.5-3.4,2.5-5.7v-5.2H410.3z"/>
					</g>
					<g>
						<path class="st2" d="M579.6,919.6v-100c0-3.2-2.1-7.4-5.3-7.4H422.7c-3.2,0-3.3,4.2-3.3,7.4v100L579.6,919.6L579.6,919.6z"/>
						<path class="st1" d="M581.4,921.4H417.6V819.6c0-3,0-9.2,5.1-9.2h151.6c4.2,0,7.1,4.8,7.1,9.2V921.4z M421.2,917.8h156.5
							v-98.2c0-2.4-1.6-5.6-3.5-5.6H422.7c-1.3,0-1.4,2.7-1.4,5.6V917.8z"/>
					</g>
					<g>
						<rect x="424" y="819.3" class="st3" width="149.2" height="94"/>
						<path class="st1" d="M574.1,914.2h-151v-95.8h151V914.2z M424.9,912.4h147.4v-92.2H424.9V912.4z"/>
					</g>
					<g>
						<path class="st2" d="M516.2,920.9L516.2,920.9c0,2.1-1.7,3.7-3.7,3.7h-29.1c-2.1,0-3.7-1.7-3.7-3.7l0,0"/>
						<path class="st1" d="M512.4,925.5h-29.1c-2.6,0-4.7-2.1-4.7-4.7h1.8c0,1.6,1.3,2.8,2.8,2.8h29.1c1.6,0,2.8-1.3,2.8-2.8h1.8
							C517.1,923.4,515,925.5,512.4,925.5z"/>
					</g>
				</g>
			</g>
			<g>
				<path class="st0" d="M551.8,900.8H444.1c-1.6,0-3-1.3-3-3v-65.7c0-1.6,1.3-3,3-3h107.7c1.6,0,3,1.3,3,3v65.7
					C554.8,899.5,553.4,900.8,551.8,900.8z"/>
				<path class="st1" d="M551.8,902.7H444.1c-2.7,0-4.8-2.2-4.8-4.8v-65.7c0-2.7,2.2-4.8,4.8-4.8h107.7c2.7,0,4.8,2.2,4.8,4.8v65.7
					C556.6,900.5,554.5,902.7,551.8,902.7z M444.1,830.9c-0.6,0-1.2,0.5-1.2,1.2v65.7c0,0.6,0.5,1.2,1.2,1.2h107.7
					c0.6,0,1.2-0.5,1.2-1.2v-65.7c0-0.6-0.5-1.2-1.2-1.2H444.1z"/>
			</g>
			<g>
				<circle class="st0" cx="450.5" cy="837.4" r="3.6"/>
				<path class="st1" d="M450.5,841.9c-2.5,0-4.5-2-4.5-4.5c0-2.5,2-4.5,4.5-4.5c2.5,0,4.5,2,4.5,4.5
					C454.9,839.9,452.9,841.9,450.5,841.9z M450.5,834.7c-1.5,0-2.7,1.2-2.7,2.7c0,1.5,1.2,2.7,2.7,2.7c1.5,0,2.7-1.2,2.7-2.7
					C453.1,835.9,451.9,834.7,450.5,834.7z"/>
			</g>
			<g>
				<circle class="st0" cx="460.9" cy="837.4" r="3.6"/>
				<path class="st1" d="M460.9,841.9c-2.5,0-4.5-2-4.5-4.5c0-2.5,2-4.5,4.5-4.5c2.5,0,4.5,2,4.5,4.5
					C465.4,839.9,463.4,841.9,460.9,841.9z M460.9,834.7c-1.5,0-2.7,1.2-2.7,2.7c0,1.5,1.2,2.7,2.7,2.7c1.5,0,2.7-1.2,2.7-2.7
					C463.6,835.9,462.4,834.7,460.9,834.7z"/>
			</g>
			<rect x="441.1" y="844.5" class="st1" width="113.7" height="1.8"/>
			<rect x="468.8" y="845.4" class="st1" width="1.8" height="55.4"/>
		</g>
		<g>
			<g>
				<g>
					<rect x="216.7" y="896.3" class="st4" width="122.5" height="37.2"/>
					<path class="st1" d="M340.7,934.9H215.2v-40.1h125.4L340.7,934.9z M218.1,932h119.6v-34.3H218.1V932z"/>
				</g>
				<circle class="st1" cx="233.4" cy="909.3" r="3.5"/>
				<g>
					<g>
						<defs>
							<rect id="SVGID_5_" x="241.9" y="902.5" width="83" height="23.1"/>
						</defs>
						<clipPath id="SVGID_6_">
							<use xlink:href="#SVGID_5_"  style="overflow:visible;"/>
						</clipPath>
						<g class="st13">
							
								<rect x="175.7" y="914.1" transform="matrix(0.7071 -0.7071 0.7071 0.7071 -590.9965 402.9112)" class="st1" width="30.3" height="1.4"/>
							
								<rect x="184.9" y="914.1" transform="matrix(0.7071 -0.7071 0.7071 0.7071 -588.3067 409.4047)" class="st1" width="30.3" height="1.4"/>
							
								<rect x="194.1" y="914.1" transform="matrix(0.7071 -0.7071 0.7071 0.7071 -585.617 415.8985)" class="st1" width="30.3" height="1.4"/>
							
								<rect x="203.3" y="914.1" transform="matrix(0.7071 -0.7071 0.7071 0.7071 -582.9272 422.3921)" class="st1" width="30.3" height="1.4"/>
							
								<rect x="212.4" y="914.1" transform="matrix(0.7071 -0.7071 0.7071 0.7071 -580.2375 428.8858)" class="st1" width="30.3" height="1.4"/>
							
								<rect x="221.6" y="914.1" transform="matrix(0.7071 -0.7071 0.7071 0.7071 -577.5478 435.3794)" class="st1" width="30.3" height="1.4"/>
							
								<rect x="230.8" y="914.1" transform="matrix(0.7071 -0.7071 0.7071 0.7071 -574.8582 441.873)" class="st1" width="30.3" height="1.4"/>
							
								<rect x="240" y="914.1" transform="matrix(0.7071 -0.7071 0.7071 0.7071 -572.1683 448.3665)" class="st1" width="30.3" height="1.4"/>
							
								<rect x="249.2" y="914.1" transform="matrix(0.7071 -0.7071 0.7071 0.7071 -569.4786 454.8601)" class="st1" width="30.3" height="1.4"/>
							
								<rect x="258.4" y="914.1" transform="matrix(0.7071 -0.7071 0.7071 0.7071 -566.7897 461.3532)" class="st1" width="30.3" height="1.4"/>
							
								<rect x="267.5" y="914.1" transform="matrix(0.7071 -0.7071 0.7071 0.7071 -564.1 467.8468)" class="st1" width="30.3" height="1.4"/>
							
								<rect x="276.7" y="914.1" transform="matrix(0.7071 -0.7071 0.7071 0.7071 -561.4105 474.3408)" class="st1" width="30.3" height="1.4"/>
							
								<rect x="285.9" y="914.1" transform="matrix(0.7071 -0.7071 0.7071 0.7071 -558.7206 480.8343)" class="st1" width="30.3" height="1.4"/>
							
								<rect x="295.1" y="914.1" transform="matrix(0.7071 -0.7071 0.7071 0.7071 -556.0308 487.3279)" class="st1" width="30.3" height="1.4"/>
							
								<rect x="304.3" y="914.1" transform="matrix(0.7071 -0.7071 0.7071 0.7071 -553.3403 493.8221)" class="st1" width="30.3" height="1.4"/>
							
								<rect x="313.5" y="914.1" transform="matrix(0.7071 -0.7071 0.7071 0.7071 -550.6505 500.3157)" class="st1" width="30.3" height="1.4"/>
							
								<rect x="322.6" y="914.1" transform="matrix(0.7071 -0.7071 0.7071 0.7071 -547.9617 506.8088)" class="st1" width="30.3" height="1.4"/>
							
								<rect x="331.8" y="914.1" transform="matrix(0.7071 -0.7071 0.7071 0.7071 -545.2719 513.3024)" class="st1" width="30.3" height="1.4"/>
						</g>
					</g>
				</g>
				<rect x="241.2" y="904.6" class="st1" width="1.4" height="22.4"/>
			</g>
			<g>
				<rect x="276.5" y="873.5" class="st1" width="2.9" height="21.3"/>
			</g>
			<circle class="st1" cx="278" cy="872.2" r="3.5"/>
			<g>
				<path class="st1" d="M278,848.9c-6.4,0-12.2,2.6-16.5,6.8l7,7c2.4-2.4,5.8-3.9,9.5-3.9c3.7,0,7.1,1.5,9.5,3.9l7-7
					C290.2,851.5,284.4,848.9,278,848.9z"/>
				<path class="st1" d="M278,829.2c-11.9,0-22.6,4.8-30.4,12.6l7,7c6-6,14.3-9.7,23.4-9.7c9.1,0,17.4,3.7,23.4,9.7l7-7
					C300.6,834,289.8,829.2,278,829.2z"/>
				<path class="st1" d="M278,809.4c-17.3,0-33,7-44.3,18.4l7,7c9.6-9.6,22.8-15.5,37.4-15.5c14.6,0,27.8,5.9,37.4,15.5l7-7
					C310.9,816.5,295.3,809.4,278,809.4z"/>
			</g>
		</g>
	</g>
	<g>
		<g>
			<line class="st6" x1="498" y1="348.6" x2="498" y2="313"/>
			<g>
				<path class="st1" d="M498,356.5c1.4-3.7,3.7-8.4,6.2-11.2l-6.2,2.3l-6.2-2.3C494.3,348.2,496.6,352.8,498,356.5z"/>
			</g>
		</g>
	</g>
	<g>
		<g>
			<line class="st6" x1="498" y1="701.9" x2="498" y2="666.2"/>
			<g>
				<path class="st1" d="M498,709.8c1.4-3.7,3.7-8.4,6.2-11.2l-6.2,2.3l-6.2-2.3C494.3,701.4,496.6,706.1,498,709.8z"/>
			</g>
		</g>
	</g>
	<g>
		<g>
			<text transform="matrix(1 0 0 1 346.0117 286.2155)" class="st1 st7 st8">Public Network</text>
		</g>
		<g>
			<g>
				<rect x="310.5" y="111.3" class="st4" width="375.1" height="113.8"/>
				<path class="st1" d="M690,229.5H306V106.9H690L690,229.5z M314.9,220.7h366.2V115.7H314.9V220.7z"/>
			</g>
			<circle class="st1" cx="361.7" cy="151.3" r="10.9"/>
			<g>
				<g>
					<defs>
						<rect id="SVGID_7_" x="387.7" y="130.5" width="254.1" height="70.8"/>
					</defs>
					<clipPath id="SVGID_8_">
						<use xlink:href="#SVGID_7_"  style="overflow:visible;"/>
					</clipPath>
					<g class="st14">
						
							<rect x="185.1" y="166" transform="matrix(0.7071 -0.7071 0.7071 0.7071 -51.1434 212.9048)" class="st1" width="92.7" height="4.4"/>
						
							<rect x="213.2" y="166" transform="matrix(0.7071 -0.7071 0.7071 0.7071 -42.9107 232.7793)" class="st1" width="92.7" height="4.4"/>
						
							<rect x="241.3" y="166" transform="matrix(0.7071 -0.7071 0.7071 0.7071 -34.6785 252.6543)" class="st1" width="92.7" height="4.4"/>
						
							<rect x="269.4" y="166" transform="matrix(0.7071 -0.7071 0.7071 0.7071 -26.4461 272.5289)" class="st1" width="92.7" height="4.4"/>
						
							<rect x="297.5" y="166" transform="matrix(0.7071 -0.7071 0.7071 0.7071 -18.214 292.4039)" class="st1" width="92.7" height="4.4"/>
						
							<rect x="325.6" y="166" transform="matrix(0.7071 -0.7071 0.7071 0.7071 -9.9816 312.2785)" class="st1" width="92.7" height="4.4"/>
						
							<rect x="353.7" y="166" transform="matrix(0.7071 -0.7071 0.7071 0.7071 -1.7495 332.1532)" class="st1" width="92.7" height="4.4"/>
						
							<rect x="381.8" y="166" transform="matrix(0.7071 -0.7071 0.7071 0.7071 6.4832 352.0277)" class="st1" width="92.7" height="4.4"/>
						
							<rect x="409.9" y="166" transform="matrix(0.7071 -0.7071 0.7071 0.7071 14.7155 371.9023)" class="st1" width="92.7" height="4.4"/>
						
							<rect x="438" y="166" transform="matrix(0.7071 -0.7071 0.7071 0.7071 22.9451 391.7755)" class="st1" width="92.7" height="4.4"/>
						
							<rect x="466.1" y="166" transform="matrix(0.7071 -0.7071 0.7071 0.7071 31.1775 411.6501)" class="st1" width="92.7" height="4.4"/>
						
							<rect x="494.2" y="166" transform="matrix(0.7071 -0.7071 0.7071 0.7071 39.4092 431.5257)" class="st1" width="92.7" height="4.4"/>
						
							<rect x="522.3" y="166" transform="matrix(0.7071 -0.7071 0.7071 0.7071 47.6419 451.4001)" class="st1" width="92.7" height="4.4"/>
						
							<rect x="550.4" y="166" transform="matrix(0.7071 -0.7071 0.7071 0.7071 55.8746 471.2746)" class="st1" width="92.7" height="4.4"/>
						
							<rect x="578.6" y="166" transform="matrix(0.7071 -0.7071 0.7071 0.7071 64.1093 491.1512)" class="st1" width="92.7" height="4.4"/>
						
							<rect x="606.7" y="166" transform="matrix(0.7071 -0.7071 0.7071 0.7071 72.3416 511.0258)" class="st1" width="92.7" height="4.4"/>
						
							<rect x="634.8" y="166" transform="matrix(0.7071 -0.7071 0.7071 0.7071 80.5712 530.8989)" class="st1" width="92.7" height="4.4"/>
						
							<rect x="662.9" y="166" transform="matrix(0.7071 -0.7071 0.7071 0.7071 88.8036 550.7735)" class="st1" width="92.7" height="4.4"/>
					</g>
				</g>
			</g>
			<rect x="385.5" y="136.8" class="st1" width="4.4" height="68.5"/>
		</g>
	</g>
	<g>
		<g>
			<polyline class="st15" points="306,168.2 72,168.2 72,872.7 116.3,872.7 			"/>
			<g>
				<path class="st1" d="M127,872.7c-5.1,1.9-11.3,5.1-15.2,8.5l3.1-8.5l-3.1-8.5C115.7,867.6,122,870.8,127,872.7z"/>
			</g>
		</g>
	</g>
	<g>
		<g>
			<polyline class="st15" points="1609.5,168.2 1847.7,168.2 1847.7,872.7 1803.2,872.7 			"/>
			<g>
				<path class="st1" d="M1792.4,872.7c5.1-1.9,11.3-5.1,15.2-8.5l-3.1,8.5l3.1,8.5C1803.8,877.8,1797.5,874.6,1792.4,872.7z"/>
			</g>
		</g>
	</g>
	<g>
		<g>
			<polyline class="st15" points="690,168.2 996,168.2 996,484.4 1282.9,484.4 			"/>
			<g>
				<path class="st1" d="M1293.7,484.4c-5.1,1.9-11.3,5.1-15.2,8.5l3.1-8.5l-3.1-8.5C1282.3,479.3,1288.6,482.5,1293.7,484.4z"/>
			</g>
		</g>
	</g>
	<g>
		<g>
			<polyline class="st16" points="596.5,484.4 922.4,484.4 922.4,872.7 1040.3,872.7 			"/>
			<g>
				<path class="st1" d="M1051.1,872.7c-5.1,1.9-11.3,5.1-15.2,8.5l3.1-8.5l-3.1-8.5C1039.7,867.6,1046,870.8,1051.1,872.7z"/>
			</g>
		</g>
	</g>
	<g>
		<text transform="matrix(1 0 0 1 440.2675 633.5493)" class="st1 st10 st11">Edge Site</text>
	</g>
	<g>
		<rect x="1212.4" y="101.7" class="st1" width="43.9" height="32.7"/>
		<path class="st1" d="M1222.1,90.2c0-6.8,5.5-12.3,12.3-12.3c6.8,0,12.3,5.5,12.3,12.3v11.5h5.9V90.2c0-10-8.2-18.2-18.2-18.2
			c-10,0-18.2,8.2-18.2,18.2v11.5h5.9L1222.1,90.2L1222.1,90.2z"/>
	</g>
	<g>
		<text transform="matrix(1 0 0 1 400.357 979.2206)" class="st1 st10 st11">End User Nodes</text>
	</g>
	<g>
		<g>
			
				<ellipse transform="matrix(0.7071 -0.7071 0.7071 0.7071 -196.7429 493.7754)" class="st4" cx="497.7" cy="484.4" rx="97.5" ry="97.5"/>
			<path class="st1" d="M497.7,389.8c52.1,0,94.5,42.4,94.5,94.5s-42.4,94.5-94.5,94.5s-94.5-42.4-94.5-94.5
				S445.5,389.8,497.7,389.8 M497.7,384c-55.4,0-100.4,44.9-100.4,100.4c0,55.4,44.9,100.4,100.4,100.4
				c55.4,0,100.4-44.9,100.4-100.4C598,428.9,553.1,384,497.7,384L497.7,384z"/>
		</g>
		<circle class="st1" cx="539.8" cy="460.1" r="20"/>
		<circle class="st1" cx="455.5" cy="460.1" r="20"/>
		<polygon class="st12" points="496.5,534.9 540.3,459.4 455.1,459.4 		"/>
		<circle class="st1" cx="497.2" cy="534.1" r="19.9"/>
	</g>
</g>
<g id="Guides" class="st17">
</g>
</svg>
